<svg width="138" height="45" viewBox="0 0 138 45" fill="none" xmlns="http://www.w3.org/2000/svg">
<path d="M12.6958 0.960938V1.1526L11.8916 1.34426V9.83642L12.6958 10.0281V10.2197H8.88335V10.0281L9.68754 9.83642V2.59745L6.5304 10.3524H6.12828L2.03291 2.59745V9.63001L3.10515 10.0281V10.2197H0.558594V10.0281L1.63084 9.63001V1.34426L0.826643 1.1526V0.960938H2.49457C2.74773 0.960938 2.97112 0.990423 3.14983 1.0494C3.32854 1.10837 3.50727 1.18209 3.6413 1.28529C3.79022 1.38849 3.90936 1.50644 4.0136 1.63913C4.11785 1.77182 4.20721 1.934 4.29656 2.09617L7.21543 7.62492L9.44926 2.09617C9.52372 1.90451 9.5982 1.74233 9.70245 1.60964C9.7918 1.47695 9.91091 1.35901 10.0449 1.2558C10.179 1.1526 10.3428 1.07888 10.5364 1.03465C10.73 0.990423 10.9683 0.960938 11.2661 0.960938H12.6958Z" fill="#FF6D6D"/>
<path d="M17.4614 3.42285C18.0124 3.42285 18.5187 3.49657 18.9506 3.65874C19.3825 3.82092 19.7548 4.05681 20.0675 4.35168C20.3802 4.66129 20.6036 5.02987 20.7674 5.45743C20.9312 5.88498 21.0057 6.38626 21.0057 6.93176C21.0057 7.47726 20.9312 7.97854 20.7674 8.40609C20.6036 8.83365 20.3653 9.20223 20.0675 9.51184C19.7548 9.82145 19.3825 10.0426 18.9506 10.2048C18.5187 10.367 18.0124 10.4407 17.4614 10.4407C16.9103 10.4407 16.404 10.367 15.9721 10.2048C15.5403 10.0426 15.1679 9.80671 14.8552 9.51184C14.5425 9.20223 14.3191 8.83365 14.1553 8.40609C13.9915 7.97854 13.917 7.47726 13.917 6.93176C13.917 6.38626 13.9915 5.88498 14.1553 5.45743C14.3191 5.02987 14.5574 4.66129 14.8552 4.35168C15.1679 4.04207 15.5403 3.82092 15.9721 3.65874C16.404 3.49657 16.8954 3.42285 17.4614 3.42285ZM17.4614 10.19C17.6103 10.19 17.7592 10.1458 17.923 10.0426C18.0719 9.9394 18.2059 9.77722 18.3251 9.52658C18.4442 9.27595 18.5485 8.95159 18.6229 8.53878C18.6974 8.11123 18.7421 7.58047 18.7421 6.9465C18.7421 6.2978 18.6974 5.76704 18.6229 5.35423C18.5485 4.94141 18.4442 4.60232 18.3251 4.36642C18.2059 4.13053 18.0719 3.95361 17.923 3.85041C17.7741 3.74721 17.6252 3.70298 17.4614 3.70298C17.3124 3.70298 17.1635 3.74721 16.9997 3.85041C16.8508 3.95361 16.7167 4.11579 16.5976 4.36642C16.4784 4.61706 16.3742 4.94141 16.2998 5.35423C16.2253 5.78178 16.1806 6.31254 16.1806 6.9465C16.1806 7.59521 16.2253 8.12597 16.2998 8.53878C16.3742 8.95159 16.4784 9.29069 16.5976 9.52658C16.7167 9.76248 16.8508 9.9394 16.9997 10.0426C17.1486 10.1311 17.2975 10.19 17.4614 10.19Z" fill="#FF6D6D"/>
<path d="M27.5133 0.960938C28.3175 0.960938 28.7196 1.35901 28.7196 2.15515V9.85116L29.5238 10.0428V10.2345H28.3175C27.9899 10.2345 27.7367 10.1903 27.5431 10.0871C27.3495 9.98385 27.1857 9.8659 27.0814 9.74796C26.9474 9.60052 26.8432 9.4236 26.7836 9.24668C26.6645 9.48258 26.5155 9.67424 26.3368 9.85116C26.1879 9.99859 25.9794 10.1313 25.7262 10.264C25.4731 10.3967 25.1752 10.4556 24.8327 10.4556C24.4455 10.4556 24.0881 10.3819 23.7604 10.2345C23.4179 10.0871 23.135 9.8659 22.8967 9.57103C22.6584 9.27617 22.45 8.90759 22.3159 8.48003C22.167 8.03773 22.1074 7.53646 22.1074 6.94672C22.1074 6.35699 22.1819 5.85572 22.3159 5.41342C22.4649 4.97112 22.6584 4.61728 22.9265 4.32241C23.1796 4.02755 23.4924 3.8064 23.8498 3.65896C24.2072 3.51153 24.6093 3.43781 25.0561 3.43781C25.2944 3.43781 25.5029 3.4673 25.6965 3.51153C25.8901 3.5705 26.0539 3.62948 26.1879 3.7032C26.3517 3.77691 26.4857 3.86537 26.6049 3.96858V1.3885L25.8007 1.19683V1.00517H27.5133V0.960938ZM26.5751 4.3519C26.4708 4.2487 26.3815 4.16024 26.2624 4.08652C26.1581 4.01281 26.0539 3.95383 25.9347 3.89486C25.8156 3.83588 25.6965 3.82114 25.5624 3.82114C25.3986 3.82114 25.2348 3.86537 25.0859 3.95383C24.9369 4.04229 24.8178 4.18972 24.6987 4.41087C24.5944 4.63202 24.5051 4.95638 24.4455 5.35444C24.3859 5.76726 24.3562 6.28327 24.3562 6.93198C24.3562 7.56594 24.3859 8.06722 24.4455 8.46529C24.5051 8.86336 24.5796 9.17296 24.6838 9.39411C24.7731 9.61526 24.8774 9.77744 25.0114 9.85116C25.1306 9.92487 25.2497 9.9691 25.3688 9.9691C25.5773 9.9691 25.756 9.91013 25.9049 9.80693C26.0538 9.70372 26.173 9.57103 26.2772 9.43834C26.3964 9.27617 26.5006 9.09925 26.59 8.90758V4.3519H26.5751Z" fill="#FF6D6D"/>
<path d="M34.0065 10.4563C32.8598 10.4563 31.9663 10.1467 31.3408 9.52747C30.7005 8.90825 30.3877 8.03839 30.3877 6.94738C30.3877 6.40188 30.4622 5.90061 30.626 5.47305C30.7898 5.0455 31.0132 4.67691 31.2961 4.3673C31.5791 4.05769 31.9216 3.83655 32.3386 3.67437C32.7407 3.51219 33.1874 3.43848 33.6789 3.43848C34.1852 3.43848 34.632 3.51219 35.0192 3.64488C35.4213 3.79232 35.7489 3.98398 36.0319 4.21987C36.3148 4.45577 36.5233 4.73589 36.6722 5.06024C36.8211 5.3846 36.8956 5.72369 36.8956 6.09227C36.8956 6.21022 36.8956 6.32817 36.8807 6.41663C36.8658 6.50509 36.851 6.59355 36.8361 6.66726C36.8063 6.75572 36.7914 6.82944 36.7616 6.88841C36.3744 6.96213 35.9574 7.03585 35.5106 7.08008C35.1383 7.13905 34.7065 7.18328 34.215 7.21276C33.7236 7.24225 33.2172 7.27174 32.6811 7.27174C32.6811 7.81724 32.7258 8.27429 32.8002 8.64287C32.8747 9.01145 32.9938 9.30632 33.1279 9.51272C33.2768 9.73387 33.4406 9.88131 33.6342 9.96977C33.8278 10.0582 34.0512 10.1025 34.2746 10.1025C34.5427 10.1025 34.7958 10.0582 35.0341 9.95502C35.2723 9.85182 35.4808 9.73387 35.6447 9.5717C35.8234 9.40952 35.9574 9.21786 36.0616 9.01145C36.1659 8.80505 36.2106 8.59864 36.2106 8.37749H36.5382C36.5382 8.64287 36.4786 8.8935 36.3595 9.14414C36.2404 9.39478 36.0616 9.61593 35.8383 9.80759C35.6149 9.99925 35.3468 10.1467 35.0341 10.2646C34.7362 10.3973 34.3937 10.4563 34.0065 10.4563ZM32.6662 6.93264C32.9641 6.93264 33.2321 6.93264 33.4704 6.9179C33.7087 6.90316 33.9023 6.88841 34.0661 6.87367C34.2597 6.85893 34.4086 6.82944 34.5426 6.81469C34.5575 6.72623 34.5873 6.62303 34.6022 6.51983C34.6171 6.41663 34.632 6.31342 34.6469 6.19548C34.6618 6.07753 34.6618 5.94484 34.6618 5.81215C34.6618 5.41408 34.632 5.07499 34.5724 4.80961C34.5128 4.54423 34.4384 4.32307 34.3341 4.14616C34.2448 3.98398 34.1405 3.85129 34.0065 3.79232C33.8725 3.73334 33.7682 3.68911 33.6491 3.68911C33.53 3.68911 33.4108 3.73334 33.2917 3.8218C33.1726 3.91026 33.0683 4.07244 32.9641 4.29359C32.8747 4.52948 32.7854 4.85383 32.7258 5.28139C32.6662 5.70895 32.6662 6.25445 32.6662 6.93264Z" fill="#FF6D6D"/>
<path d="M42.525 3.88002C42.257 3.88002 42.0187 3.93899 41.8102 4.04219C41.6017 4.1454 41.423 4.27809 41.2741 4.41078C41.1103 4.57295 40.9762 4.74987 40.8422 4.94154V9.85106L41.6464 10.0427V10.2344H37.8936V10.0427L38.6977 9.85106V4.01271L37.8936 3.82104V3.62938H39.0998C39.4126 3.62938 39.6657 3.68835 39.8742 3.79156C40.0678 3.89476 40.2316 4.01271 40.3508 4.13065C40.4848 4.27809 40.5891 4.44026 40.6486 4.61718C40.7827 4.42552 40.9465 4.2486 41.1401 4.08642C41.3039 3.95373 41.5124 3.83579 41.7655 3.71784C42.0187 3.59989 42.3017 3.55566 42.6442 3.55566C43.1207 3.55566 43.4781 3.67361 43.7164 3.88002C43.9547 4.10117 44.0589 4.41078 44.0589 4.80885C44.0589 5.10371 43.9696 5.35435 43.7909 5.53127C43.6122 5.70819 43.359 5.79665 43.0612 5.79665C42.9867 5.79665 42.9271 5.79665 42.8527 5.79665C42.7782 5.79665 42.7335 5.78191 42.6889 5.78191C42.6293 5.76716 42.5697 5.76716 42.525 5.73767V3.88002Z" fill="#FF6D6D"/>
<path d="M49.8219 5.6052C49.8219 5.31033 49.7921 5.04496 49.7325 4.82381C49.6729 4.60266 49.5985 4.42574 49.4943 4.29305C49.4049 4.14561 49.3007 4.04241 49.1666 3.98344C49.0475 3.92446 48.9283 3.88023 48.8092 3.88023C48.6007 3.88023 48.422 3.93921 48.2731 4.04241C48.1242 4.14561 47.9901 4.2783 47.9008 4.41099C47.7817 4.57317 47.6923 4.75009 47.6029 4.94175V9.85128L48.4071 10.0429V10.2346H44.6543V10.0429L45.4584 9.85128V4.01292L44.6543 3.82126V3.6296H45.8606C46.1733 3.6296 46.4265 3.68857 46.6349 3.79177C46.8285 3.89498 46.9924 4.01292 47.1115 4.13087C47.2455 4.2783 47.3498 4.44048 47.4093 4.6174C47.5285 4.39625 47.6774 4.18984 47.8561 4.01292C48.005 3.86549 48.2135 3.7328 48.4518 3.60011C48.6901 3.46742 49.0028 3.40845 49.3602 3.40845C49.7474 3.40845 50.1048 3.46742 50.4176 3.60011C50.7452 3.71806 51.0133 3.89498 51.2366 4.08664C51.46 4.29305 51.6388 4.5142 51.7728 4.77958C51.9068 5.04496 51.9663 5.31033 51.9663 5.59046V9.83653L52.7705 10.0282V10.2199H51.0282C50.224 10.2199 49.8219 9.82179 49.8219 9.02565V5.6052Z" fill="#FF6D6D"/>
<path d="M1.97363 19.5523V19.0068H12.3237V19.5523L10.1495 20.0978V31.229H17.953V20.0978L15.7787 19.5523V19.0068H26.1288V19.5523L23.9545 20.0978V43.0974L26.1288 43.6429V44.1884H15.7787V43.6282L17.953 43.0827V32.1284H10.1495V43.0827L12.3237 43.6282V44.1737H1.97363V43.6282L4.14789 43.0827V20.0831L1.97363 19.5523Z" fill="#FF6D6D"/>
<path d="M38.9954 25.656C40.4995 25.656 41.8398 25.8772 43.0312 26.3047C44.2225 26.7323 45.2203 27.3662 46.0543 28.1919C46.8882 29.0175 47.5286 30.02 47.9605 31.1995C48.3924 32.379 48.6157 33.7059 48.6157 35.1949C48.6157 36.684 48.3924 38.0109 47.9605 39.1904C47.5286 40.3698 46.8882 41.3576 46.0543 42.1833C45.2203 43.0089 44.2076 43.6429 43.0312 44.0704C41.8398 44.498 40.4995 44.7191 38.9954 44.7191C37.4913 44.7191 36.151 44.498 34.9596 44.0704C33.7682 43.6429 32.7704 43.0089 31.9365 42.1833C31.1025 41.3576 30.4621 40.3551 30.0303 39.1904C29.5984 38.0109 29.375 36.684 29.375 35.1949C29.375 33.7059 29.5984 32.379 30.0303 31.1995C30.4621 30.02 31.1025 29.0322 31.9365 28.1919C32.7704 27.3515 33.7831 26.7323 34.9596 26.3047C36.151 25.8772 37.4913 25.656 38.9954 25.656ZM38.9954 43.9819C39.4124 43.9819 39.8145 43.8493 40.2315 43.5839C40.6484 43.3185 41.0058 42.8615 41.3335 42.198C41.6611 41.5346 41.9292 40.6352 42.1377 39.5C42.3462 38.3647 42.4504 36.9199 42.4504 35.1654C42.4504 33.411 42.3462 31.9661 42.1377 30.8309C41.9292 29.6957 41.6611 28.7963 41.3335 28.1329C41.0058 27.4694 40.6335 27.0124 40.2315 26.747C39.8294 26.4816 39.4124 26.3489 38.9954 26.3489C38.5784 26.3489 38.1763 26.4816 37.7593 26.747C37.3424 27.0124 36.9849 27.4694 36.6573 28.1329C36.3297 28.7963 36.0616 29.6957 35.8531 30.8309C35.6446 31.9661 35.5404 33.411 35.5404 35.1654C35.5404 36.9199 35.6446 38.3647 35.8531 39.5C36.0616 40.6352 36.3297 41.5346 36.6573 42.198C36.9849 42.8615 37.3572 43.3185 37.7593 43.5839C38.1763 43.8493 38.5784 43.9819 38.9954 43.9819Z" fill="#FF6D6D"/>
<path d="M75.8239 31.5833C75.8239 30.7281 75.7495 29.991 75.6006 29.416C75.4516 28.841 75.2729 28.3545 75.0347 27.9859C74.7964 27.6173 74.5432 27.3519 74.2751 27.175C73.9922 27.0128 73.7241 26.9244 73.4561 26.9244C72.9944 26.9244 72.5923 27.0718 72.2349 27.3667C71.8775 27.6615 71.5797 28.0006 71.3116 28.3545C71.0286 28.782 70.7606 29.2686 70.5521 29.7846V43.083L72.7412 43.6285V44.174H62.5847V43.6285L64.759 43.083V31.5833C64.759 30.7281 64.6845 29.991 64.5356 29.416C64.3867 28.841 64.208 28.3545 63.9697 27.9859C63.7314 27.6173 63.4783 27.3519 63.2102 27.175C62.9273 27.0128 62.6592 26.9244 62.3911 26.9244C61.9294 26.9244 61.5274 27.0718 61.17 27.3667C60.8126 27.6615 60.5147 28.0006 60.2466 28.3545C59.9488 28.782 59.6956 29.2686 59.4871 29.7846V43.083L61.6614 43.6285V44.174H51.5049V43.6285L53.6792 43.083V27.2782L51.5049 26.7327V26.1872H54.7663C55.6151 26.1872 56.3151 26.3346 56.8512 26.6148C57.4022 26.8949 57.8192 27.2192 58.1469 27.5436C58.5043 27.9564 58.7723 28.3987 58.951 28.8705C59.2637 28.266 59.6509 27.7353 60.1126 27.2487C60.5296 26.8359 61.0359 26.4673 61.6316 26.1282C62.2422 25.7891 62.9719 25.627 63.8506 25.627C65.2951 25.627 66.5609 25.9513 67.6034 26.5853C68.6607 27.2192 69.465 28.0449 70.016 29.0474C70.3287 28.4282 70.7159 27.8679 71.1776 27.3519C71.5945 26.9244 72.1009 26.5263 72.6966 26.1725C73.3071 25.8186 74.0368 25.627 74.9155 25.627C75.9133 25.627 76.8068 25.7891 77.6408 26.0987C78.4599 26.4083 79.1747 26.8359 79.7704 27.3814C80.3661 27.9269 80.8277 28.5461 81.1553 29.2686C81.483 29.991 81.6468 30.7576 81.6468 31.5685V43.0683L83.8211 43.6138V44.1593H79.1002C76.9259 44.1593 75.8388 43.083 75.8388 40.9305V31.5833H75.8239Z" fill="#FF6D6D"/>
<path d="M95.7942 44.7047C92.6967 44.7047 90.2841 43.8643 88.5715 42.1689C86.8589 40.4734 85.9951 38.1587 85.9951 35.1805C85.9951 33.6914 86.2185 32.3646 86.6504 31.1851C87.0823 30.0056 87.6928 29.0178 88.4672 28.1774C89.2416 27.3518 90.1799 26.7179 91.2819 26.2903C92.3839 25.8627 93.5902 25.6416 94.8858 25.6416C96.241 25.6416 97.4622 25.8333 98.5344 26.2166C99.6066 26.5999 100.53 27.1159 101.275 27.7646C102.019 28.4133 102.6 29.18 103.002 30.0498C103.404 30.9197 103.598 31.8485 103.598 32.8363C103.598 33.1754 103.583 33.4703 103.538 33.7209C103.493 33.9716 103.464 34.1927 103.404 34.3844C103.33 34.6203 103.27 34.8267 103.225 34.9889C102.153 35.21 101.036 35.3869 99.8449 35.5344C98.8323 35.6818 97.6557 35.7997 96.3303 35.9177C95.0049 36.0209 93.6051 36.0799 92.1605 36.0799C92.1605 37.5689 92.2648 38.8074 92.4882 39.7952C92.7115 40.783 93.0094 41.5791 93.3966 42.1689C93.7838 42.7586 94.2454 43.1714 94.7815 43.422C95.3176 43.6727 95.8985 43.8054 96.5239 43.8054C97.2537 43.8054 97.9387 43.6727 98.5791 43.4073C99.2194 43.1419 99.7704 42.7881 100.247 42.3458C100.724 41.9035 101.096 41.4022 101.379 40.842C101.662 40.2817 101.796 39.7067 101.796 39.1317H102.704C102.704 39.8542 102.54 40.5471 102.213 41.2105C101.885 41.8887 101.423 42.4785 100.813 42.9945C100.202 43.5105 99.4875 43.9233 98.6387 44.2329C97.7749 44.5425 96.8218 44.7047 95.7942 44.7047ZM92.1605 35.1805C92.9796 35.1805 93.7093 35.1658 94.3348 35.1216C94.9603 35.0773 95.4964 35.0478 95.9283 35.0036C96.4346 34.9594 96.8665 34.9004 97.2388 34.8267C97.2835 34.5908 97.343 34.3254 97.4175 34.0305C97.4622 33.7652 97.5068 33.4703 97.5366 33.1459C97.5664 32.8216 97.5962 32.4825 97.5962 32.1287C97.5962 31.0524 97.5068 30.1531 97.343 29.4159C97.1792 28.6787 96.9558 28.089 96.7026 27.6319C96.4495 27.1749 96.1516 26.8506 95.8389 26.6589C95.5113 26.4672 95.1836 26.364 94.8709 26.364C94.5581 26.364 94.2305 26.482 93.9029 26.7031C93.5753 26.939 93.2923 27.3666 93.0392 28.0005C92.786 28.6345 92.5775 29.5338 92.3988 30.6838C92.2499 31.8338 92.1605 33.3376 92.1605 35.1805Z" fill="#FF6D6D"/>
<path d="M121.424 43.805V29.2239L108.408 19.0215V43.805H121.424Z" fill="#FF6D6D"/>
<path d="M137.522 43.805V29.2239L124.715 19.0215V43.805H137.522Z" fill="#FF6D6D"/>
</svg>
