<svg width="108" height="106" viewBox="0 0 108 106" fill="none" xmlns="http://www.w3.org/2000/svg">
<g style="mix-blend-mode:multiply">
<path d="M53.8958 104.943C82.9621 104.943 106.525 81.6158 106.525 52.8402C106.525 24.0646 82.9621 0.737305 53.8958 0.737305C24.8295 0.737305 1.2666 24.0646 1.2666 52.8402C1.2666 81.6158 24.8295 104.943 53.8958 104.943Z" fill="white"/>
<path d="M53.8962 105.68C24.4692 105.68 0.522461 81.9728 0.522461 52.84C0.522461 23.7073 24.4692 0 53.8962 0C83.3233 0 107.27 23.7073 107.27 52.84C107.27 81.9728 83.3233 105.68 53.8962 105.68ZM53.8962 1.47433C25.2883 1.47433 2.01168 24.5181 2.01168 52.84C2.01168 81.162 25.2883 104.206 53.8962 104.206C82.5042 104.206 105.781 81.162 105.781 52.84C105.781 24.5181 82.5042 1.47433 53.8962 1.47433Z" fill="#FF6D6D"/>
<path d="M61.4022 6.02976C61.7596 6.05924 62.0723 6.07398 62.3255 6.07398L62.2957 6.30988C61.8787 6.36885 61.5213 6.67846 61.2384 7.26819L57.694 14.286L57.5898 14.2713L57.5004 14.2565L55.2517 6.42782C55.1028 5.91181 54.8496 5.63169 54.4922 5.58746L54.522 5.35156C54.8496 5.41054 55.2815 5.45477 55.8176 5.51374C56.5175 5.57271 57.0388 5.61694 57.3813 5.61694L57.3515 5.85284C57.0388 5.83809 56.8154 5.85284 56.6813 5.89707C56.5473 5.9413 56.4729 6.05924 56.458 6.20667C56.4431 6.33936 56.4729 6.53103 56.5473 6.78166L58.2004 12.7675L60.6576 7.87267C60.8661 7.4746 60.9703 7.15025 61.0001 6.91435C61.0299 6.66372 60.9554 6.47205 60.7916 6.33936C60.6278 6.20667 60.3597 6.13296 60.0023 6.08873L60.0321 5.85284C60.464 5.92655 60.9256 5.98553 61.4022 6.02976Z" fill="#FF6D6D"/>
<path d="M71.4098 9.14065C71.2609 9.14065 71.1417 9.19962 71.0524 9.31757C70.963 9.43551 70.8588 9.62718 70.7545 9.9073L68.6249 15.5098C68.5207 15.7899 68.4611 16.011 68.4611 16.1585C68.4611 16.3059 68.5058 16.4238 68.6101 16.5123C68.7143 16.6008 68.9079 16.704 69.176 16.8219L69.0866 17.0431C68.7441 16.8956 68.2675 16.704 67.657 16.4681C67.0017 16.2174 66.5102 16.0553 66.1826 15.9521L66.272 15.7309C66.5549 15.8194 66.7634 15.8636 66.8974 15.8636C67.0315 15.8636 67.1655 15.8046 67.2549 15.6867C67.3442 15.5687 67.4485 15.3771 67.5527 15.0969L69.6823 9.49449C69.7865 9.21436 69.8461 8.99321 69.8461 8.84578C69.8461 8.69835 69.8014 8.5804 69.6972 8.49194C69.5929 8.40348 69.3993 8.30028 69.1313 8.18233L69.2206 7.96118C69.5334 8.09387 70.0099 8.28553 70.6652 8.53617C71.2758 8.77206 71.7672 8.93424 72.1246 9.03744L72.0353 9.25859C71.7672 9.17013 71.5587 9.1259 71.4098 9.14065Z" fill="#FF6D6D"/>
<path d="M84.6633 16.9398C84.5144 16.9104 84.3655 16.9546 84.2315 17.043C84.0974 17.1315 83.9336 17.3084 83.7549 17.5591L79.4362 23.3532L79.2128 23.191L79.7936 13.8732L75.9663 19.0039C75.7876 19.2545 75.6684 19.4609 75.6088 19.6231C75.5493 19.7853 75.5791 19.9327 75.6535 20.0802C75.728 20.2276 75.9067 20.3898 76.1599 20.5962L76.0109 20.7878C75.7876 20.5962 75.4599 20.3455 75.0281 20.0212C74.6409 19.7411 74.3281 19.5199 74.0898 19.3872L74.2388 19.1956C74.477 19.3577 74.6706 19.4462 74.8196 19.4609C74.9685 19.4904 75.1174 19.4462 75.2514 19.3577C75.3855 19.2545 75.5493 19.0924 75.728 18.8417L79.2426 14.1239C79.4213 13.8732 79.5404 13.6816 79.5851 13.5489C79.6298 13.4162 79.6149 13.2835 79.5404 13.1656C79.4659 13.0476 79.317 12.9002 79.0787 12.7085L79.2277 12.5168C79.4213 12.6938 79.7191 12.9297 80.1212 13.2098C80.419 13.4309 80.6722 13.6079 80.9105 13.7405L80.4339 21.5545L83.5315 17.3969C83.7102 17.1462 83.8443 16.9398 83.8889 16.7777C83.9336 16.6155 83.9187 16.4681 83.8443 16.3206C83.7698 16.1732 83.5911 15.9963 83.3379 15.8046L83.4868 15.6129C83.7102 15.8046 84.0379 16.0552 84.4697 16.3796C84.8569 16.6597 85.1697 16.8809 85.4079 17.0136L85.259 17.2052C85.0059 17.0578 84.8123 16.9546 84.6633 16.9398Z" fill="#FF6D6D"/>
<path d="M89.6527 23.5893C90.0399 23.3091 90.442 22.9995 90.8739 22.6162C91.2462 23.1765 91.9015 24.1053 92.8397 25.4174C93.7779 26.7149 94.448 27.6289 94.8501 28.1597C94.3438 28.4546 93.9119 28.7199 93.5247 28.9853C93.1971 29.2212 92.929 29.4276 92.7354 29.5898L92.5716 29.3686C93.0482 28.9558 93.3758 28.6167 93.5694 28.3661C93.763 28.1155 93.8374 27.8501 93.8226 27.57C93.8077 27.2898 93.629 26.9507 93.346 26.5379L92.9588 26.0072L87.3146 29.9879C87.0466 30.1795 86.853 30.3565 86.7636 30.4891C86.6743 30.6218 86.6445 30.784 86.7041 30.9609C86.7487 31.1231 86.8828 31.359 87.0764 31.6539L86.8828 31.8013C86.6594 31.4475 86.3169 30.9462 85.8701 30.3417C85.3935 29.6783 85.0361 29.2065 84.7979 28.9116L84.9915 28.7642C85.2148 29.0443 85.3935 29.236 85.5425 29.3392C85.6914 29.4424 85.8403 29.4719 86.0041 29.4276C86.1679 29.3834 86.3913 29.2654 86.6594 29.0738L92.3035 25.0931L91.9163 24.5623C91.6185 24.1495 91.3504 23.8989 91.0973 23.7809C90.8441 23.663 90.5611 23.6482 90.2633 23.7514C89.9655 23.8547 89.5336 24.0463 88.9826 24.3559L88.8188 24.1348C89.0421 24.0168 89.3102 23.8399 89.6527 23.5893Z" fill="#FF6D6D"/>
<path d="M92.5121 44.0532L92.2739 44.1269C92.1845 43.8026 92.0654 43.3898 91.8867 42.8885C91.6633 42.2398 91.4846 41.7532 91.3506 41.4289L91.5888 41.3552C91.6931 41.6353 91.8122 41.8417 91.9016 41.9449C92.0058 42.0481 92.1398 42.0776 92.2888 42.0186C92.4228 41.9744 92.5866 41.8712 92.7802 41.709L94.4332 40.3674L93.495 37.6104L92.1101 37.5514C91.6633 37.5219 91.3208 37.5514 91.0825 37.6399C90.8442 37.7283 90.6953 37.861 90.6357 38.0527C90.591 38.2443 90.6208 38.5245 90.7251 38.8636L90.4868 38.9373C90.3677 38.495 90.2187 38.0527 90.0698 37.6104C89.9507 37.2713 89.8464 36.9912 89.7422 36.77L89.9805 36.6963C90.189 37.0501 90.6357 37.2418 91.291 37.2565L99.2136 37.6104L99.2732 37.7873L92.9589 42.9917C92.5717 43.3603 92.4228 43.6994 92.5121 44.0532ZM97.6797 37.7873L93.778 37.6251L94.6566 40.2199L97.6797 37.7873Z" fill="#FF6D6D"/>
<path d="M93.5991 55.3311C93.748 55.2721 93.8224 55.1984 93.8224 55.0952C93.8224 55.0363 93.8075 54.992 93.7778 54.9478C93.748 54.9036 93.6884 54.8151 93.5991 54.6972C93.3757 54.417 93.2119 54.1222 93.0927 53.8273C92.9736 53.5324 92.914 53.1933 92.914 52.8248C92.8991 51.9991 93.0629 51.2915 93.3906 50.687C93.7331 50.0825 94.2096 49.6255 94.8649 49.3011C95.5053 48.9768 96.2797 48.8146 97.1881 48.7998C98.1263 48.7851 98.9454 48.9325 99.6453 49.2569C100.345 49.5812 100.896 50.0235 101.283 50.6133C101.671 51.203 101.879 51.8664 101.879 52.6036C101.879 52.928 101.849 53.2228 101.79 53.4735C101.73 53.7241 101.641 53.9453 101.537 54.1369C101.432 54.3286 101.298 54.5497 101.12 54.7856C101.045 54.8888 101.001 54.9773 101.001 55.0363C101.001 55.1837 101.254 55.2869 101.745 55.3311V55.6112C101.224 55.5818 100.286 55.5818 98.9454 55.6112V55.3311C99.3772 55.2574 99.7347 55.1689 100.018 55.0805C100.301 54.992 100.539 54.8593 100.747 54.6972C101.03 54.4613 101.269 54.1517 101.432 53.7683C101.596 53.385 101.671 53.0017 101.671 52.5889C101.656 52.0581 101.477 51.6011 101.12 51.203C100.762 50.8049 100.256 50.5101 99.6155 50.2889C98.9603 50.0825 98.2156 49.9793 97.3519 49.994C96.369 50.0088 95.5797 50.1267 94.9543 50.3479C94.3288 50.569 93.882 50.8934 93.5842 51.3209C93.2863 51.7485 93.1523 52.294 93.1672 52.9574C93.1821 53.444 93.3161 53.8568 93.5693 54.2106C93.6735 54.3581 93.7629 54.4465 93.8671 54.4908C93.9565 54.535 94.0905 54.5497 94.2543 54.5497L95.4308 54.535C95.7733 54.535 96.0116 54.4908 96.1754 54.4318C96.3243 54.3728 96.4435 54.2549 96.4882 54.0779C96.5477 53.9158 96.5775 53.6504 96.5775 53.2965H96.8158C96.8009 53.6946 96.786 54.2549 96.8009 55.0068C96.8158 55.567 96.8307 55.9946 96.8605 56.26H96.6222C96.6073 56.0683 96.5626 55.9356 96.5179 55.8619C96.4733 55.7882 96.369 55.7292 96.235 55.6997C96.101 55.6702 95.8776 55.6555 95.5648 55.6702L93.1523 55.7145V55.4786C93.2863 55.4196 93.4501 55.3901 93.5991 55.3311Z" fill="#FF6D6D"/>
<path d="M91.8276 67.8781C91.3957 67.7454 90.8894 67.6127 90.3086 67.4947C90.5022 66.9787 90.7851 66.1089 91.1872 64.8704C91.6638 63.3961 92.0063 62.2756 92.2148 61.5237L92.4531 61.5974C92.3786 61.8775 92.3488 62.0839 92.3488 62.2314C92.3637 62.3788 92.4233 62.482 92.5424 62.5705C92.6616 62.6589 92.8701 62.7474 93.153 62.8358L98.9163 64.6345C99.2142 64.723 99.4226 64.7672 99.5716 64.7672C99.7205 64.7672 99.8396 64.7082 99.929 64.5903C100.018 64.4723 100.108 64.2807 100.212 64.0153L100.45 64.089C100.182 64.8409 99.8247 65.9467 99.3482 67.421C98.9908 68.5415 98.7376 69.3524 98.6185 69.8389C98.127 69.6325 97.6802 69.4556 97.2633 69.3376C96.9654 69.2492 96.7123 69.1755 96.5335 69.146L96.6229 68.8806C97.1441 68.9838 97.5462 69.028 97.8143 69.028C98.0823 69.028 98.3057 68.9396 98.4844 68.7627C98.6631 68.6005 98.8121 68.3056 98.9461 67.9075L99.2439 66.9492C99.3333 66.6691 99.378 66.4627 99.3631 66.33C99.3482 66.1973 99.3035 66.0794 99.1844 65.9909C99.0652 65.9024 98.8716 65.814 98.5738 65.7255L95.8336 64.8704L95.5953 65.6371C95.4762 66.0204 95.506 66.3153 95.6996 66.5217C95.8932 66.7281 96.1017 66.8755 96.3399 66.9787C96.5782 67.0819 96.7271 67.1556 96.7867 67.1851L96.6974 67.4505C96.3251 67.3031 95.9676 67.1704 95.6102 67.0672L95.0592 66.905C94.672 66.787 94.1061 66.6249 93.3913 66.4627L93.4806 66.1973C93.5402 66.2121 93.7338 66.2415 94.0614 66.3153C94.3891 66.3742 94.672 66.3447 94.8954 66.2268C95.1188 66.1089 95.2677 65.8877 95.372 65.5781L95.6102 64.8114L92.8105 63.9416C92.5126 63.8531 92.3042 63.8089 92.1552 63.8089C92.0063 63.8089 91.8872 63.8679 91.8127 63.9858C91.7234 64.1038 91.634 64.2954 91.5446 64.5755L91.2766 65.4159C91.1277 65.9024 91.0681 66.2858 91.1277 66.5659C91.1723 66.8608 91.3213 67.0967 91.5744 67.3031C91.8276 67.4947 92.2148 67.7159 92.736 67.9518L92.6467 68.2171C92.468 68.0845 92.185 67.996 91.8276 67.8781Z" fill="#FF6D6D"/>
<path d="M87.5821 85.9677C87.6417 85.8351 87.6268 85.7024 87.5672 85.5697C87.5077 85.437 87.3587 85.2748 87.1354 85.0537L82.757 80.9108C82.5337 80.7044 82.355 80.5717 82.2209 80.5127C82.0869 80.4537 81.9529 80.4537 81.8188 80.5127C81.6848 80.5717 81.521 80.7044 81.3125 80.9108L81.1338 80.7486C81.4167 80.498 81.7742 80.1294 82.2358 79.6723C82.7124 79.1711 83.0698 78.7877 83.2932 78.5371L83.4719 78.6993C83.2783 78.9204 83.1591 79.0974 83.0996 79.2153C83.04 79.348 83.0549 79.4807 83.1145 79.6134C83.174 79.7461 83.3229 79.9082 83.5463 80.1294L87.9246 84.2723C88.148 84.4787 88.3267 84.6114 88.4608 84.6703C88.5948 84.7293 88.7288 84.7293 88.8629 84.6703C88.9969 84.6114 89.1607 84.4787 89.3692 84.2723L89.5479 84.4344C89.2947 84.6556 88.9224 85.0242 88.4459 85.5254C87.9842 85.9972 87.6417 86.3806 87.4034 86.6607L87.2247 86.4985C87.4034 86.2773 87.5226 86.1004 87.5821 85.9677Z" fill="#FF6D6D"/>
<path d="M75.1774 94.9617C75.2668 94.829 75.2816 94.6963 75.2519 94.5341C75.2221 94.372 75.1178 94.1655 74.954 93.8854L71.2607 87.6785L71.499 87.531L79.928 91.7034L76.6666 86.2189C76.5028 85.9535 76.3688 85.7618 76.2348 85.6586C76.1007 85.5554 75.9518 85.5112 75.788 85.526C75.6242 85.5407 75.4008 85.6292 75.1178 85.7766L74.9838 85.5702C75.2519 85.4522 75.6093 85.2458 76.0709 84.9805C76.4879 84.7298 76.8007 84.5382 77.024 84.376L77.1432 84.5824C76.9049 84.7298 76.7411 84.8772 76.6666 85.0099C76.5773 85.1426 76.5624 85.2753 76.5922 85.4375C76.622 85.5997 76.7262 85.8061 76.89 86.0862L79.8982 91.1432C80.0472 91.4085 80.1812 91.5855 80.3003 91.6739C80.4195 91.7624 80.5386 91.8066 80.6875 91.7771C80.8216 91.7476 81.0301 91.6739 81.2832 91.5412L81.4024 91.7476C81.1641 91.8656 80.8365 92.0425 80.4046 92.2931C80.0918 92.4701 79.8238 92.647 79.6004 92.7944L72.5266 89.3002L75.1774 93.7527C75.3412 94.0181 75.4752 94.2098 75.6093 94.313C75.7284 94.4162 75.8773 94.4604 76.056 94.4457C76.2348 94.4309 76.4581 94.3425 76.7411 94.195L76.8602 94.4014C76.5922 94.5194 76.2347 94.7258 75.7731 94.9912C75.3561 95.2418 75.0434 95.4335 74.82 95.5956L74.7009 95.3892C74.9242 95.2271 75.088 95.0796 75.1774 94.9617Z" fill="#FF6D6D"/>
<path d="M66.9872 96.8924C67.0914 97.3495 67.2254 97.8507 67.4041 98.3815C66.734 98.4995 65.6171 98.7353 64.0385 99.0597C62.4599 99.3988 61.3579 99.6494 60.7026 99.8116C60.6282 99.2366 60.5537 98.7353 60.4495 98.2783C60.3601 97.8802 60.2856 97.5559 60.1963 97.32L60.4643 97.261C60.6579 97.8655 60.8367 98.293 61.0005 98.5732C61.1643 98.8533 61.3728 99.0302 61.6408 99.1187C61.9089 99.2071 62.2961 99.1924 62.7875 99.0892L63.4279 98.9565L61.9685 92.2483C61.894 91.9239 61.8195 91.688 61.7153 91.5553C61.6111 91.4227 61.4919 91.3342 61.3132 91.3194C61.1345 91.29 60.8664 91.3195 60.509 91.3784L60.4643 91.1425C60.8813 91.0836 61.477 90.9656 62.2216 90.8034C63.0109 90.6265 63.6066 90.4938 63.9789 90.3906L64.0236 90.6265C63.6662 90.715 63.4279 90.8034 63.279 90.8919C63.1301 90.9804 63.0407 91.113 63.0109 91.2752C62.9811 91.4374 62.996 91.688 63.0705 92.0124L64.5299 98.7206L65.1703 98.5879C65.6617 98.4847 66.0192 98.3373 66.2276 98.1456C66.4361 97.9539 66.5553 97.7033 66.5851 97.3937C66.6148 97.0841 66.6 96.6123 66.5255 95.9931L66.7936 95.9341C66.8382 96.17 66.8978 96.4944 66.9872 96.8924Z" fill="#FF6D6D"/>
<path d="M47.2248 92.7502C47.2695 92.2932 47.2844 91.7771 47.2844 91.2021C47.8354 91.2759 48.7587 91.3643 50.0693 91.4823C51.6181 91.615 52.7945 91.7182 53.5987 91.7624L53.5838 91.9983C53.286 91.9835 53.0775 91.9983 52.9435 92.0425C52.8094 92.0867 52.7052 92.1605 52.6456 92.2932C52.5861 92.4258 52.5414 92.647 52.5116 92.9419L51.9755 98.9129C51.9457 99.2078 51.9606 99.4289 51.9904 99.5764C52.0201 99.7238 52.1095 99.827 52.2435 99.886C52.3776 99.9449 52.5861 100.004 52.869 100.033L52.8541 100.269C52.0648 100.181 50.8883 100.063 49.3395 99.9302C48.1482 99.827 47.2993 99.768 46.793 99.7385C46.8972 99.2225 46.9717 98.7507 47.0015 98.3232C47.0312 98.0136 47.0461 97.7629 47.0312 97.5713L47.3142 97.6007C47.3291 98.1315 47.3589 98.5148 47.4333 98.7802C47.4929 99.0456 47.6269 99.2373 47.8354 99.3699C48.029 99.5026 48.3567 99.5911 48.7736 99.6206L49.7863 99.709C50.0842 99.7385 50.2926 99.7238 50.4267 99.6943C50.5607 99.6648 50.665 99.5763 50.7245 99.4437C50.7841 99.311 50.8288 99.0898 50.8585 98.795L51.1117 95.9642L50.3075 95.8905C49.9054 95.861 49.6225 95.9495 49.4587 96.1854C49.3098 96.4213 49.1906 96.6572 49.1459 96.9078C49.0864 97.1585 49.0566 97.3206 49.0417 97.3943L48.7587 97.3649C48.8183 96.9668 48.863 96.5982 48.9077 96.2296L48.9523 95.6546C48.9821 95.2418 49.0119 94.6816 49.0417 93.9444L49.3247 93.9739C49.3247 94.0329 49.3395 94.2245 49.3395 94.5636C49.3544 94.9027 49.4289 95.1681 49.6076 95.345C49.7714 95.5367 50.0246 95.6399 50.3522 95.6694L51.1564 95.7431L51.4096 92.8534C51.4393 92.5585 51.4245 92.3374 51.3947 92.1899C51.3649 92.0573 51.2755 91.9541 51.1415 91.8951C51.0075 91.8361 50.799 91.7919 50.516 91.7624L49.6225 91.6887C49.1162 91.6444 48.729 91.6739 48.446 91.7919C48.1779 91.8951 47.9695 92.1015 47.8205 92.3816C47.6716 92.6617 47.5525 93.0893 47.4333 93.6495L47.1504 93.6201C47.1504 93.3989 47.1802 93.104 47.2248 92.7502Z" fill="#FF6D6D"/>
<path d="M35.5049 87.2805C35.7283 87.2363 35.9815 87.2805 36.2495 87.3984C36.5623 87.5311 36.7708 87.7228 36.8899 87.9734C37.009 88.2388 37.0239 88.6074 36.9495 89.0939L36.7261 90.3029C36.6516 90.7304 36.6069 91.0548 36.592 91.3054C36.5772 91.5413 36.6367 91.7625 36.741 91.9541C36.8452 92.1458 37.0388 92.2932 37.3218 92.4112L38.394 92.8535L39.4811 90.2881C39.6003 90.008 39.6599 89.8016 39.6747 89.6542C39.6896 89.5067 39.6301 89.3888 39.5258 89.2856C39.4216 89.1824 39.2429 89.0792 38.9748 88.9612L39.0642 88.7401C39.4067 88.9023 39.8683 89.1087 40.4789 89.3593C41.1193 89.6247 41.6107 89.8163 41.9384 89.9196L41.849 90.1407C41.5661 90.0375 41.3576 89.9933 41.2235 89.9785C41.0746 89.9785 40.9555 90.0228 40.8661 90.1407C40.7619 90.2439 40.6576 90.4356 40.5385 90.7157L38.2004 96.2444C38.0813 96.5246 38.0217 96.731 38.0068 96.8784C37.9919 97.0258 38.0515 97.1438 38.1557 97.247C38.26 97.3502 38.4387 97.4534 38.7067 97.5861L38.6174 97.8072C38.3047 97.6598 37.8579 97.4534 37.2622 97.2027C36.9644 97.0848 36.6516 96.9521 36.2942 96.8047C35.9368 96.6573 35.6985 96.5688 35.5645 96.5098C34.9837 96.2592 34.522 95.9791 34.1795 95.64C33.837 95.3009 33.6434 94.947 33.554 94.5637C33.4647 94.1804 33.5094 93.8118 33.6732 93.4432C33.7923 93.1483 33.9859 92.883 34.254 92.6471C34.522 92.4112 34.8646 92.2343 35.2815 92.1458C35.6985 92.0573 36.2049 92.0721 36.7559 92.2048L36.6218 92.131C36.3091 91.9394 36.0708 91.7477 35.9219 91.5413C35.773 91.3497 35.6687 91.1285 35.6389 90.8926C35.5943 90.6567 35.6092 90.3618 35.6687 90.008L35.8772 88.7548C35.9219 88.5042 35.9517 88.3125 35.9517 88.1651C35.9517 88.0177 35.9368 87.8997 35.8921 87.8113C35.8474 87.7228 35.773 87.6491 35.6687 87.6196C35.5496 87.5606 35.4305 87.5606 35.3262 87.5901C35.222 87.6196 35.073 87.6933 34.8794 87.7965L34.7603 87.6048C35.0284 87.4427 35.2815 87.3247 35.5049 87.2805ZM36.2495 92.5291C35.8921 92.5733 35.6092 92.706 35.3858 92.9272C35.1624 93.1483 34.9688 93.4432 34.805 93.8265C34.5518 94.431 34.4922 94.9618 34.6561 95.3893C34.8199 95.8169 35.222 96.1707 35.8921 96.4508C36.1304 96.554 36.3091 96.5983 36.458 96.5835C36.592 96.5835 36.7112 96.5246 36.8154 96.4066C36.9197 96.2887 37.0239 96.097 37.1282 95.8316L38.2898 93.0894L37.5303 92.7798C37.0388 92.5733 36.6069 92.4849 36.2495 92.5291Z" fill="#FF6D6D"/>
<path d="M23.8887 89.2853C24.0227 89.3296 24.1567 89.3001 24.2759 89.2264C24.395 89.1526 24.5588 88.9905 24.7524 88.7546L28.4904 84.0367C28.684 83.8008 28.8031 83.6092 28.8478 83.4765C28.8924 83.3438 28.8776 83.2111 28.8031 83.0931C28.7286 82.9752 28.5797 82.813 28.3563 82.6214L28.5053 82.4297C28.7882 82.6803 29.1754 83.0047 29.6966 83.4027C30.2476 83.8303 30.6646 84.1399 30.9476 84.3316L30.7987 84.5232C30.5604 84.3463 30.3668 84.2431 30.2328 84.2136C30.0987 84.1694 29.9647 84.1841 29.8456 84.2726C29.7264 84.3463 29.5626 84.5085 29.369 84.7444L25.631 89.4623C25.4374 89.6981 25.3183 89.8898 25.2736 90.0225C25.229 90.1552 25.2438 90.2879 25.3183 90.4058C25.3928 90.5238 25.5417 90.6859 25.7651 90.8776L25.6162 91.0693C25.363 90.8481 24.9609 90.5238 24.4099 90.0815C23.8887 89.6834 23.4717 89.3738 23.1738 89.1674L23.3228 88.9757C23.5759 89.1379 23.7546 89.2411 23.8887 89.2853Z" fill="#FF6D6D"/>
<path d="M14.2687 78.7881C14.2091 78.1246 14.358 77.4612 14.7005 76.8272C15.058 76.1785 15.5941 75.6035 16.3387 75.058C17.0684 74.542 17.7981 74.2029 18.5576 74.0702C19.3171 73.9375 20.0171 73.9818 20.6723 74.2324C21.3276 74.483 21.8786 74.9106 22.3105 75.5151C22.7721 76.1343 23.0253 76.783 23.0849 77.4464C23.1444 78.1099 22.9955 78.7733 22.653 79.4073C22.2956 80.056 21.7595 80.631 21.0149 81.1765C20.2851 81.6925 19.5554 82.0316 18.7959 82.1643C18.0513 82.297 17.3365 82.2528 16.6812 82.0021C16.026 81.7515 15.4749 81.3239 15.0431 80.7342C14.5814 80.1002 14.3282 79.4515 14.2687 78.7881ZM16.5025 81.4124C17.0237 81.5156 17.6194 81.4714 18.2747 81.265C18.9299 81.0586 19.5852 80.7195 20.2702 80.2182C20.9553 79.7317 21.4914 79.2009 21.8637 78.6406C22.2509 78.0804 22.4594 77.5202 22.4892 76.9894C22.5339 76.4586 22.3998 75.9869 22.1169 75.5888C21.8041 75.176 21.4021 74.9106 20.8659 74.8074C20.3447 74.7042 19.749 74.7484 19.0938 74.9548C18.4385 75.1612 17.7832 75.5003 17.0982 75.9869C16.4132 76.4734 15.877 77.0041 15.5047 77.5791C15.1175 78.1394 14.909 78.6849 14.8644 79.2304C14.8197 79.7611 14.9537 80.2329 15.2367 80.631C15.5494 81.0438 15.9664 81.3092 16.5025 81.4124Z" fill="#FF6D6D"/>
<path d="M15.4145 61.0374C15.5933 61.1701 15.7273 61.3913 15.8166 61.6861C15.9209 61.9957 15.906 62.2906 15.7869 62.5412C15.6677 62.8066 15.3848 63.0573 14.9529 63.3079L13.8658 63.9124C13.4934 64.1335 13.2105 64.3105 13.0169 64.4579C12.8233 64.6053 12.6893 64.7822 12.6148 64.9886C12.5403 65.1951 12.5403 65.4309 12.6297 65.7258L12.9722 66.8316L15.6528 66.0059C15.9507 65.9175 16.1443 65.829 16.2634 65.7406C16.3825 65.6521 16.4421 65.5341 16.457 65.4015C16.4719 65.2688 16.4272 65.0476 16.3528 64.7675L16.591 64.6938C16.6804 65.0476 16.8144 65.5489 17.0229 66.1681C17.2314 66.8316 17.3952 67.3181 17.5144 67.6277L17.2761 67.7014C17.1718 67.4213 17.0825 67.2296 16.9931 67.1264C16.9038 67.0232 16.7846 66.9495 16.6357 66.9495C16.4868 66.9495 16.2634 66.979 15.9805 67.0822L10.2023 68.8514C9.90442 68.9399 9.71082 69.0283 9.59168 69.1168C9.47254 69.2052 9.41298 69.3232 9.39808 69.4559C9.38319 69.6033 9.42787 69.8097 9.50233 70.0898L9.26405 70.1635C9.18959 69.8392 9.05556 69.3674 8.86196 68.7482C8.77261 68.4533 8.65347 68.1142 8.53433 67.7604C8.4152 67.4065 8.32584 67.1559 8.28116 67.0232C8.08757 66.4187 8.028 65.888 8.07267 65.4162C8.11735 64.9444 8.26627 64.5611 8.50455 64.2515C8.74282 63.9419 9.05556 63.7355 9.44276 63.6175C9.7406 63.5291 10.0682 63.4996 10.4256 63.5438C10.7831 63.588 11.1256 63.7355 11.483 64.0008C11.8404 64.2662 12.1383 64.6495 12.3914 65.1656L12.3765 65.0181C12.3319 64.6495 12.317 64.3547 12.3765 64.104C12.4361 63.8534 12.5403 63.647 12.6893 63.4701C12.8531 63.2932 13.0914 63.1015 13.4041 62.9246L14.5061 62.2759C14.7295 62.1579 14.9082 62.04 15.0125 61.9515C15.1167 61.8631 15.2061 61.7746 15.2507 61.6861C15.2954 61.5977 15.2954 61.4945 15.2656 61.3913C15.2209 61.2586 15.1614 61.1701 15.072 61.1112C14.9827 61.0522 14.8338 60.9785 14.6253 60.9047L14.6997 60.6836C14.9976 60.7868 15.2507 60.9047 15.4145 61.0374ZM11.8553 64.9886C11.6021 64.7528 11.3043 64.6201 10.9916 64.5906C10.6788 64.5611 10.3214 64.6053 9.91931 64.738C9.27894 64.9297 8.84707 65.2393 8.60879 65.6373C8.37052 66.0354 8.37052 66.5809 8.57901 67.2444C8.65347 67.4803 8.74282 67.6572 8.83218 67.7604C8.92153 67.8636 9.05556 67.9226 9.20448 67.9226C9.35341 67.9226 9.57679 67.8783 9.84485 67.8046L12.7042 66.92L12.4659 66.1386C12.317 65.6079 12.1085 65.2245 11.8553 64.9886Z" fill="#FF6D6D"/>
<path d="M14.2681 47.046C14.834 46.7954 15.1765 46.3236 15.3254 45.6159C15.3701 45.3505 15.3701 45.0851 15.2956 44.8345C15.2212 44.5839 15.0871 44.3627 14.8786 44.1711C14.6701 43.9794 14.3872 43.8467 14.0149 43.7877C13.7021 43.7288 13.4192 43.7582 13.1511 43.8614C12.8831 43.9646 12.615 44.1268 12.3618 44.348C12.1087 44.5691 11.8108 44.864 11.4832 45.2326C11.1109 45.6454 10.7833 45.9845 10.5003 46.2204C10.2174 46.471 9.90463 46.6479 9.5621 46.7806C9.21958 46.9133 8.83238 46.9281 8.40051 46.8543C7.95374 46.7659 7.58144 46.6037 7.31338 46.3383C7.04532 46.0729 6.85172 45.7633 6.76236 45.3947C6.67301 45.0262 6.67301 44.6428 6.74747 44.23C6.79215 43.9794 6.85172 43.7877 6.92618 43.6108C7.00064 43.4339 7.0751 43.3012 7.16445 43.198C7.25381 43.0948 7.34316 42.9768 7.4623 42.8589C7.61122 42.6967 7.68568 42.5788 7.71547 42.4903C7.73036 42.4166 7.70057 42.3576 7.62611 42.2987C7.55165 42.2397 7.41762 42.1954 7.23892 42.1365L7.28359 41.8711C7.74525 41.989 8.54943 42.166 9.72592 42.3871L9.68124 42.6525C9.26426 42.6083 8.87706 42.623 8.48986 42.7115C8.11756 42.7852 7.78993 42.9474 7.52187 43.198C7.25381 43.4339 7.0751 43.773 7.00064 44.1858C6.94107 44.4659 6.95596 44.7166 7.03042 44.9672C7.10488 45.2178 7.23892 45.4095 7.41762 45.5717C7.61122 45.7338 7.8346 45.837 8.10266 45.896C8.53454 45.9697 8.90685 45.9108 9.21958 45.7044C9.53232 45.498 9.83016 45.2326 10.1131 44.923C10.3961 44.6134 10.5748 44.4069 10.679 44.3037C11.096 43.8614 11.4385 43.5223 11.7215 43.2717C12.0044 43.0211 12.3172 42.8442 12.6597 42.7262C13.0022 42.6083 13.3745 42.5935 13.7766 42.6672C14.2681 42.7557 14.6701 42.9474 14.968 43.2275C15.2658 43.5223 15.4594 43.8614 15.5637 44.2743C15.6679 44.6871 15.6679 45.1294 15.5786 45.6012C15.5041 45.9845 15.4148 46.2793 15.2807 46.5152C15.1616 46.7511 14.9978 46.9575 14.8191 47.1492C14.6701 47.3114 14.5957 47.4293 14.5659 47.5178C14.551 47.5915 14.5808 47.6505 14.6553 47.7094C14.7297 47.7684 14.8637 47.8274 15.0424 47.8716L14.9978 48.137C14.5659 48.0191 13.6128 47.8274 12.1385 47.562L12.1831 47.2966C13.0171 47.3704 13.7021 47.2966 14.2681 47.046Z" fill="#FF6D6D"/>
<path d="M11.3193 34.6171C10.9023 34.396 10.4258 34.1895 9.88965 33.9831C10.2173 33.4082 10.7683 32.4056 11.5129 30.9755C12.2575 29.5601 12.7787 28.5576 13.0617 27.9531C13.5531 28.2627 13.9999 28.5281 14.402 28.7345C14.7594 28.9262 15.0721 29.0589 15.3104 29.1621L15.1764 29.4127C14.5807 29.1768 14.1339 29.0294 13.8212 28.9852C13.5085 28.9262 13.2255 28.9852 12.9872 29.1326C12.749 29.28 12.5107 29.5749 12.2873 30.0172L11.9895 30.6069L18.1399 33.7767C18.4378 33.9389 18.6761 34.0126 18.8399 34.0274C19.0037 34.0421 19.1526 33.9979 19.2867 33.8799C19.4207 33.762 19.5696 33.5408 19.7483 33.2312L19.9717 33.3492C19.7483 33.7178 19.4654 34.2338 19.1079 34.912C18.7356 35.6197 18.4676 36.1652 18.3038 36.5043L18.0804 36.3863C18.2293 36.062 18.3335 35.8113 18.3484 35.6491C18.3782 35.4722 18.3335 35.3248 18.2144 35.1921C18.0953 35.0594 17.9017 34.9267 17.6038 34.7645L11.4533 31.58L11.1406 32.155C10.9023 32.5973 10.7981 32.9511 10.813 33.2312C10.8279 33.5114 10.947 33.762 11.1704 33.9831C11.3938 34.2043 11.7661 34.4992 12.3022 34.8383L12.1682 35.0889C11.9746 34.9709 11.6767 34.8088 11.3193 34.6171Z" fill="#FF6D6D"/>
<path d="M21.8336 17.6771C22.0868 17.4265 22.2953 17.1906 22.4442 17.0137L22.6229 17.1906C22.5336 17.3233 22.4889 17.5149 22.5038 17.7361C22.5187 17.9572 22.5783 18.2669 22.6974 18.6354L24.0526 22.6309L25.6312 24.1789C25.8545 24.3853 26.0184 24.5328 26.1524 24.5917C26.2864 24.6507 26.4204 24.6507 26.5545 24.5917C26.6885 24.5328 26.8523 24.4001 27.0757 24.2084L27.2544 24.3853C26.9715 24.636 26.5992 24.9898 26.1375 25.4469C25.6461 25.9334 25.2886 26.3167 25.0653 26.5673L24.8865 26.3904C25.0801 26.1693 25.2142 26.0071 25.2737 25.8744C25.3333 25.7417 25.3333 25.609 25.2589 25.4763C25.1993 25.3436 25.0504 25.1667 24.8419 24.9603L23.5314 23.6777L18.5573 22.2328C18.2595 22.1443 18.0361 22.1149 17.8872 22.1296C17.7383 22.1443 17.634 22.1886 17.5596 22.2623L17.3809 22.0854C17.6191 21.879 17.8872 21.6431 18.1553 21.363C18.7063 20.8027 19.1084 20.4046 19.3317 20.1393L19.5105 20.3162C19.1084 20.7142 19.019 21.0239 19.2424 21.245C19.3317 21.3335 19.4509 21.3924 19.6296 21.4514L23.8143 22.7341L22.7123 19.4758C22.5485 19.004 22.3847 18.6797 22.2059 18.5175C22.0421 18.3553 21.8634 18.3111 21.6698 18.3701C21.4762 18.429 21.2528 18.5765 20.9848 18.8271L20.8061 18.6502C21.1635 18.3258 21.4911 18.0015 21.8336 17.6771Z" fill="#FF6D6D"/>
<path d="M30.8437 11.7352C30.7543 11.8384 30.7097 11.9711 30.7395 12.1186C30.7692 12.266 30.8437 12.4724 30.9926 12.7378L33.8668 18.0159C34.0157 18.2813 34.1349 18.4582 34.254 18.5614C34.3583 18.6646 34.4923 18.6941 34.6263 18.6793C34.7604 18.6646 34.9688 18.5761 35.222 18.4435L36.0113 18.0159C36.4581 17.78 36.7708 17.5294 36.9346 17.2787C37.0984 17.0281 37.158 16.748 37.1133 16.4089C37.0687 16.0698 36.9346 15.6422 36.6964 15.082L36.9495 14.9493C37.0538 15.1852 37.2027 15.48 37.3963 15.8339C37.6197 16.232 37.8877 16.6743 38.2154 17.1608C37.7239 17.3967 36.8899 17.8242 35.7432 18.4435C34.3732 19.1806 33.3307 19.7409 32.6457 20.1389L32.5265 19.9325C32.7797 19.7851 32.9584 19.6524 33.0478 19.5492C33.1371 19.446 33.1818 19.3133 33.152 19.1659C33.1222 19.0184 33.0477 18.812 32.8988 18.5467L29.9948 13.2685C29.8459 13.0032 29.7268 12.8262 29.6076 12.723C29.5034 12.6198 29.3694 12.5904 29.2353 12.6051C29.0864 12.6198 28.8928 12.6936 28.6248 12.8262L28.5205 12.6051C28.8332 12.4724 29.2949 12.2365 29.9055 11.8974C30.4863 11.5878 30.9331 11.3372 31.2458 11.1455L31.3649 11.3519C31.1118 11.4993 30.9479 11.632 30.8437 11.7352Z" fill="#FF6D6D"/>
<path d="M48.982 12.6787C49.0714 13.121 49.2054 13.6223 49.3692 14.1825C48.8182 14.271 47.9098 14.4331 46.629 14.6838C45.0951 14.9787 43.9484 15.2145 43.1591 15.3915L43.1145 15.1556C43.3974 15.0819 43.6059 15.0229 43.725 14.9344C43.8442 14.8607 43.9186 14.7428 43.9335 14.6101C43.9484 14.4626 43.9335 14.2415 43.874 13.9466L42.7124 8.06404C42.6528 7.76917 42.5932 7.56276 42.5039 7.43007C42.4145 7.29738 42.3252 7.22367 42.1763 7.20892C42.0422 7.17944 41.8188 7.19418 41.5359 7.23841L41.4912 7.00252C42.2805 6.86983 43.4421 6.66342 44.9611 6.36856C46.1376 6.13266 46.9716 5.97049 47.4481 5.85254C47.4928 6.3833 47.5672 6.85508 47.6417 7.2679C47.7013 7.57751 47.7608 7.8134 47.8204 7.99032L47.5524 8.04929C47.3885 7.54802 47.2396 7.17944 47.1056 6.94354C46.9716 6.70765 46.778 6.56022 46.5546 6.4865C46.3163 6.41279 46.0036 6.41278 45.5717 6.50124L44.5739 6.69291C44.291 6.75188 44.0825 6.81085 43.9633 6.88457C43.8442 6.95829 43.7697 7.06149 43.7399 7.20892C43.725 7.35636 43.7399 7.57751 43.7995 7.87237L44.3505 10.6736L45.1398 10.5114C45.5419 10.4377 45.7802 10.2608 45.8695 9.99541C45.9589 9.73003 45.9887 9.4794 45.9738 9.22876C45.9589 8.97812 45.944 8.81595 45.944 8.74223L46.2121 8.68326C46.2567 9.08133 46.3163 9.44991 46.3908 9.80375L46.5099 10.364C46.5844 10.7621 46.7184 11.3223 46.912 12.03L46.6439 12.089C46.629 12.03 46.5695 11.8531 46.4652 11.5287C46.361 11.2044 46.2121 10.9832 45.9887 10.8505C45.7653 10.7178 45.5121 10.6883 45.1845 10.7473L44.3952 10.8948L44.9611 13.7402C45.0207 14.0351 45.0802 14.2415 45.1547 14.3742C45.2292 14.4921 45.3334 14.5658 45.4823 14.5953C45.6164 14.6101 45.8397 14.5953 46.1227 14.5364L47.0013 14.3594C47.4928 14.2562 47.8651 14.1235 48.1034 13.9466C48.3416 13.7697 48.4757 13.5191 48.5352 13.2095C48.5948 12.8998 48.5948 12.4575 48.5501 11.8826L48.8182 11.8236C48.8629 12.0447 48.9075 12.3249 48.982 12.6787Z" fill="#FF6D6D"/>
<path d="M38.9444 68.9841C38.2593 68.07 37.6636 67.0674 37.1424 65.9617C36.6212 64.8559 36.2042 63.7354 35.8915 62.5855C35.2064 57.5285 35.1915 52.619 35.8319 47.8569C36.4723 43.0948 37.5147 38.4064 38.9444 33.777C39.1826 33.261 39.7039 33.0104 40.5081 33.0104C41.3122 33.0104 42.1015 33.1873 42.9057 33.5411C43.7099 33.895 44.3651 34.3667 44.8864 34.9565C45.4076 35.5462 45.5267 36.1654 45.2438 36.7994C44.797 37.743 44.3651 39.0256 43.9333 40.6179C43.5014 42.2249 43.0695 43.9941 42.6823 45.9255C42.2802 47.8569 41.9377 49.8915 41.6399 51.9998C41.342 54.108 41.1186 56.1426 40.9846 58.074C40.8506 60.0054 40.8208 61.7598 40.8953 63.3226C40.9697 64.8854 41.208 66.1238 41.6101 67.0232C43.4865 64.5316 45.1991 61.9515 46.7628 59.2829C48.3265 56.6144 49.7859 53.9164 51.156 51.1594C52.5261 48.4171 53.8366 45.6454 55.0727 42.8294C56.3087 40.0282 57.5299 37.2564 58.7213 34.5289C59.317 33.143 59.9126 31.6835 60.4934 30.1502C61.0742 28.6021 61.8337 27.29 62.8017 26.1842C63.2038 25.8304 63.5166 25.7124 63.7251 25.8304C63.9484 25.9483 64.0974 26.1695 64.1718 26.5086C64.2463 26.8477 64.291 27.2015 64.291 27.5701C64.291 27.9387 64.291 28.2335 64.291 28.4252C64.008 30.2386 63.7697 32.0373 63.5761 33.8212C63.3825 35.6052 62.9507 37.3154 62.3252 38.9814C61.2827 41.591 60.2254 44.171 59.1234 46.7511C58.0213 49.3165 56.8448 51.8523 55.5939 54.3439C54.3429 56.8356 52.9729 59.2535 51.5283 61.5976C50.0689 63.9566 48.4903 66.1976 46.7628 68.3206C45.4076 70.0161 44.0524 70.9154 42.727 71.0186C41.342 71.1366 40.106 70.4436 38.9444 68.9841Z" fill="#FF6D6D" stroke="white" stroke-miterlimit="10"/>
<path d="M63.6061 62.2909C62.8019 61.1852 62.0127 60.0647 61.2383 58.9147C60.4639 57.7647 60.0767 56.5115 60.0767 55.1257C60.0767 53.5924 60.5234 52.1328 61.417 50.7616C62.3105 49.4053 63.3381 48.2995 64.4997 47.4739C64.9762 47.1643 65.4677 46.8989 65.9591 46.7072C66.4505 46.5156 66.9867 46.5303 67.5526 46.7662C67.7908 46.8842 68.044 46.9726 68.2972 47.0316C68.5503 47.0906 68.7886 47.1643 68.9822 47.238C69.1758 47.3117 69.3992 47.4297 69.6375 47.5918C69.8758 47.754 69.9949 47.9604 69.9949 48.2405C69.9949 49.3463 70.0247 50.2456 70.0842 50.9386C70.1438 51.6315 70.2332 52.2212 70.3523 52.7225C70.4714 53.2238 70.5906 53.6513 70.7097 54.0199C70.8289 54.4032 70.948 54.8013 71.0671 55.2289C71.1416 55.6269 71.1267 55.966 71.0076 56.2314C70.8884 56.5115 70.5906 56.541 70.114 56.3494C69.2354 56.0398 68.5801 55.4058 68.1631 54.4475C67.7462 53.4892 67.4334 52.634 67.2398 51.8379C67.1952 51.6757 67.1058 51.4104 66.942 51.0123C66.7782 50.6142 66.6888 50.3341 66.6441 50.1867C66.3314 50.1129 65.9442 50.2161 65.5123 50.511C65.0805 50.8059 64.6784 51.2187 64.3507 51.72C64.0082 52.236 63.7848 52.8257 63.6955 53.5039C63.5912 54.1821 63.7253 54.8455 64.0827 55.5237C64.2465 55.7596 64.4699 56.0545 64.7677 56.3789C65.0656 56.718 65.3634 57.057 65.6613 57.4109C65.9591 57.7647 66.2569 58.1186 66.5548 58.4429C66.8526 58.7673 67.1058 59.0474 67.2994 59.2391C67.5377 59.4749 67.7015 59.6076 67.776 59.6224C67.8504 59.6371 68.0589 59.5929 68.3716 59.4749C68.7737 59.2833 69.3843 59.0179 70.2034 58.7083C71.0225 58.3987 71.8862 58.0743 72.7797 57.7647C73.6733 57.4551 74.537 57.1897 75.3561 56.9686C76.1752 56.7474 76.8006 56.6442 77.2474 56.6442C77.5304 56.6442 77.724 56.7474 77.8431 56.9391C77.9622 57.057 77.9474 57.2192 77.7835 57.4109C77.6197 57.6025 77.4112 57.809 77.1581 58.0006C76.9049 58.1923 76.6219 58.3692 76.3539 58.5314C76.0709 58.6936 75.8922 58.782 75.8178 58.8262C75.1327 59.2243 74.2839 59.6666 73.2414 60.1679C72.1989 60.6544 71.3054 61.1409 70.5459 61.6127C70.4714 61.6864 70.3225 61.7749 70.0991 61.8486C69.8758 61.9223 69.7119 62.0108 69.5928 62.0845C70.0694 63.146 70.4119 64.0749 70.6055 64.8415C70.7991 65.6082 70.8735 66.3453 70.814 67.0678C70.7544 67.7754 70.6055 68.4979 70.3672 69.235C70.1289 69.9722 69.8013 70.8126 69.4141 71.7561C68.8482 72.6702 68.2823 73.5401 67.7015 74.3657C67.1207 75.1913 66.4803 75.9432 65.7506 76.6214C65.0358 77.2996 64.2465 77.8304 63.4125 78.2137C62.5786 78.6118 61.6552 78.8034 60.6575 78.8034C60.0916 78.8034 59.5554 78.7297 59.0342 78.597C58.513 78.4643 58.0811 78.1695 57.7237 77.7419C56.8004 76.7541 56.294 75.6779 56.1749 74.5131C56.0558 73.3484 56.16 72.1984 56.4727 71.0485C56.711 70.3408 57.0089 69.6921 57.3663 69.0876C58.2449 67.5838 59.2129 66.3158 60.2703 65.2691C61.3425 64.237 62.4445 63.2345 63.6061 62.2909ZM65.6464 64.9595C65.1996 65.4018 64.6039 66.021 63.8444 66.8319C63.0849 67.6427 62.385 68.5273 61.7148 69.4709C61.0596 70.4145 60.5234 71.3581 60.1064 72.2869C59.6895 73.2157 59.5852 74.0119 59.7788 74.6901C60.583 74.3362 61.4021 73.7465 62.236 72.9356C63.07 72.1247 63.8146 71.2401 64.455 70.2671C65.0953 69.294 65.5421 68.3357 65.7953 67.3921C66.0485 66.4338 66.0038 65.6229 65.6464 64.9595Z" fill="#FF6D6D" stroke="white" stroke-miterlimit="10"/>
<path d="M53.896 86.2929C35.2658 86.2929 20.1055 71.2842 20.1055 52.8403C20.1055 34.3964 35.2658 19.3877 53.896 19.3877C72.5262 19.3877 87.6864 34.3964 87.6864 52.8403C87.6864 71.2842 72.5262 86.2929 53.896 86.2929ZM53.896 20.862C36.0848 20.862 21.5947 35.2073 21.5947 52.8403C21.5947 70.4733 36.0848 84.8185 53.896 84.8185C71.7071 84.8185 86.1972 70.4733 86.1972 52.8403C86.1972 35.2073 71.7071 20.862 53.896 20.862Z" fill="#FF6D6D"/>
</g>
</svg>
