<svg width="171" height="45" viewBox="0 0 171 45" fill="none" xmlns="http://www.w3.org/2000/svg">
<path d="M36.5734 44.9306H8.59466C3.99679 44.9306 0.270508 41.2415 0.270508 36.6896V8.99067C0.270508 4.43879 3.99679 0.749756 8.59466 0.749756H36.5734C41.1713 0.749756 44.8976 4.43879 44.8976 8.99067V36.6896C44.8976 41.2415 41.1713 44.9306 36.5734 44.9306Z" fill="#FF6D6D"/>
<path d="M30.6234 23.2467C31.4191 24.2346 31.8234 25.385 31.8234 26.6856C31.8234 28.5989 31.1792 30.0995 29.8908 31.1624C28.6023 32.2254 26.7581 32.7756 24.3581 32.7756H13.874V10.4539H24.1055C26.4045 10.4539 28.1729 10.9541 29.4234 11.942C30.6739 12.9299 31.3055 14.343 31.3055 16.1687C31.3055 17.5193 30.9392 18.6322 30.2192 19.5326C29.4992 20.433 28.5518 21.0082 27.3771 21.2833C28.7539 21.6085 29.8276 22.2588 30.6234 23.2467ZM19.3182 19.5826H22.8929C24.7876 19.5826 25.735 18.7823 25.735 17.1817C25.735 15.581 24.7624 14.7806 22.8298 14.7806H19.3182V19.5826ZM26.2402 25.9353C26.2402 25.1349 25.975 24.5097 25.4445 24.0595C24.914 23.6093 24.1561 23.3842 23.1834 23.3842H19.3308V28.3988H23.2213C25.2297 28.3863 26.2402 27.5735 26.2402 25.9353Z" fill="white"/>
<path d="M70.754 32.7756L65.8783 24.3471H64.6404V32.7756H59.1836V10.4539H68.493C70.274 10.4539 71.7898 10.754 73.0151 11.3667C74.253 11.9795 75.1751 12.8173 75.794 13.8803C76.4129 14.9432 76.7161 16.1562 76.7161 17.5318C76.7161 19.1575 76.2614 20.533 75.3645 21.671C74.4551 22.809 73.154 23.5843 71.4235 24.0095L76.7793 32.7881H70.754V32.7756ZM64.6404 20.6581H68.013C69.0993 20.6581 69.8951 20.4205 70.4004 19.9453C70.9056 19.4701 71.1709 18.7698 71.1709 17.8444C71.1709 16.9566 70.9056 16.2688 70.3877 15.7561C69.8698 15.2558 69.074 14.9932 68.013 14.9932H64.6404V20.6581Z" fill="#FF6D6D"/>
<path d="M101.399 28.7112H92.9483L91.5462 32.7878H85.8115L94.0725 10.6287H100.35L108.611 32.7878H102.814L101.399 28.7112ZM99.9967 24.5969L97.1925 16.3936L94.3504 24.5969H99.9967Z" fill="#FF6D6D"/>
<path d="M138.711 32.7756H133.254L124.135 19.0699V32.7756H118.678V10.4539H124.135L133.254 24.2846V10.4539H138.711V32.7756Z" fill="#FF6D6D"/>
<path d="M169.305 27.3983C168.358 29.0865 166.994 30.4121 165.225 31.3625C163.444 32.3129 161.36 32.7881 158.96 32.7881H150.446V10.4663H158.96C161.385 10.4663 163.482 10.929 165.238 11.8544C167.006 12.7798 168.358 14.0803 169.305 15.7685C170.252 17.4567 170.72 19.3825 170.72 21.5834C170.72 23.7593 170.24 25.6976 169.305 27.3983ZM163.431 26.2728C164.606 25.1599 165.2 23.5842 165.2 21.5709C165.2 19.5451 164.606 17.9819 163.431 16.869C162.257 15.756 160.602 15.1933 158.467 15.1933H155.89V27.9486H158.467C160.602 27.9486 162.257 27.3983 163.431 26.2728Z" fill="#FF6D6D"/>
</svg>
