<svg width="152" height="46" viewBox="0 0 152 46" fill="none" xmlns="http://www.w3.org/2000/svg">
<path d="M21.8366 9.20395L22.9535 8.96805C23.2364 8.96805 23.4747 9.02703 23.6385 9.14497C23.8023 9.26292 23.8917 9.38087 23.8917 9.48407C23.8917 9.58727 23.8619 9.74945 23.8172 9.94111C23.7725 10.1328 23.3556 12.1084 22.5812 15.8384C21.8068 19.5685 21.2409 22.355 20.8835 24.1832C22.611 21.8537 24.6363 18.9935 26.9446 15.5878C29.2529 12.1821 30.6081 9.92637 30.9953 8.80588C31.1144 8.45204 31.2782 8.18666 31.4718 7.99499C31.6654 7.80333 31.8441 7.68539 31.9931 7.6559C32.142 7.62641 32.3803 7.59692 32.693 7.59692C33.0057 7.59692 33.3781 7.67064 33.8099 7.80333C34.2418 7.93602 34.4652 8.15717 34.4652 8.48152C34.4652 9.07126 33.5716 10.7962 31.7995 13.6269C30.0273 16.4577 27.9871 19.4653 25.6937 22.6498C23.4003 25.8344 21.494 28.3555 19.9601 30.2132C19.6921 30.5375 19.3496 30.7144 18.9624 30.7144C18.5752 30.7144 18.1582 30.6407 17.7263 30.508C17.2944 30.3754 17.071 30.1395 17.071 29.7856C17.071 28.6799 18.0539 23.3428 20.0197 13.8039C18.3369 15.9564 16.2966 18.964 13.899 22.812C11.3971 26.7927 9.98234 29.2696 9.65471 30.2132C9.476 30.7882 9.26752 31.1273 9.02924 31.2157C8.86543 31.2894 8.68671 31.3189 8.508 31.3189L7.30174 31.4516C7.06346 31.4516 6.85496 31.3926 6.64647 31.2599C6.45287 31.1273 6.34863 30.9946 6.34863 30.8471C6.34863 30.4491 6.91455 29.2401 8.03146 27.235C9.14838 25.2299 10.4738 23.0479 11.9779 20.689C13.482 18.3301 15.0457 16.0448 16.6839 13.8186C18.322 11.5924 19.5878 10.0885 20.4814 9.33664C20.6601 9.17446 20.8686 9.10074 21.1068 9.10074L21.8366 9.20395Z" fill="#FF6D6D"/>
<path d="M39.7365 19.2C40.5109 19.2 40.8981 19.4654 40.8981 19.9814C40.8981 20.2616 40.8386 20.468 40.7045 20.6006C40.5705 20.7333 40.2876 21.1609 39.8557 21.9128C39.4238 22.65 38.9472 23.5935 38.426 24.7583C37.9048 25.9082 37.5623 26.896 37.4134 27.7069C37.3836 27.8101 37.3687 27.9428 37.3687 28.1345C37.3687 28.6947 37.5176 28.9601 37.8303 28.9601C38.1431 28.9601 38.5005 28.8127 38.9175 28.5326C39.3344 28.2377 39.7067 27.9428 40.0344 27.6037C40.362 27.2794 40.6747 26.9403 40.9875 26.6012C41.3002 26.2621 41.4789 26.0557 41.5385 26.0114C41.5981 25.9672 41.6874 25.9377 41.8066 25.9377C42.0002 25.9377 42.1193 26.0852 42.164 26.38C42.2087 26.6749 42.2235 26.9698 42.2235 27.2941C42.2235 27.6185 42.1938 27.8249 42.1342 27.9428C41.8363 28.5178 41.196 29.2107 40.1833 30.0216C39.1855 30.8325 38.2622 31.2306 37.4431 31.2306C36.6241 31.2306 36.0135 30.9799 35.6412 30.4934C35.2689 30.0069 35.0604 29.4466 35.0604 28.8569C35.0604 28.2524 35.1646 27.7364 35.3731 27.2794C34.5243 28.3704 33.5563 29.2845 32.4691 30.0511C31.3671 30.803 30.4885 31.1863 29.7885 31.1863C29.0886 31.1863 28.5376 30.9799 28.0908 30.5671C27.5249 30.0511 27.2568 29.3434 27.2568 28.4293C27.2568 27.5153 27.4653 26.6012 27.8823 25.6723C28.2993 24.7583 28.8354 23.9031 29.5056 23.1512C30.1757 22.3846 30.9203 21.6916 31.7245 21.0724C33.4073 19.7603 34.971 19.1116 36.4007 19.1116C36.9517 19.1116 37.3985 19.2 37.741 19.377C38.0835 19.5539 38.3069 19.7898 38.3962 20.0551C38.6345 19.6866 38.843 19.4654 39.0217 19.3622C39.1557 19.2443 39.4089 19.2 39.7365 19.2ZM37.7112 20.8808C35.9688 20.8808 34.1668 21.8391 32.3053 23.7557C31.65 24.4486 31.0395 25.2595 30.4736 26.2179C29.9077 27.1762 29.6396 27.8249 29.6396 28.1787C29.6396 28.5325 29.7439 28.7095 29.9524 28.7095C30.2353 28.7095 31.0246 28.1492 32.3351 27.0435C33.6456 25.9377 34.5094 25.1121 34.9264 24.5813C35.4029 23.9916 36.3262 22.7532 37.7112 20.8808Z" fill="#FF6D6D"/>
<path d="M51.3235 11.2092L51.9489 11.3567C52.0383 11.3567 52.1277 11.4009 52.1872 11.4894C52.2617 11.5778 52.2915 11.6663 52.2915 11.74C52.2915 11.8137 52.1872 12.0349 51.9639 12.3887C51.7405 12.7425 51.5022 13.1406 51.2043 13.5829C50.9065 14.0252 50.7576 14.2758 50.7427 14.3201C51.532 14.2611 52.0979 14.2316 52.4255 14.2316C52.7531 14.2316 52.9765 14.2611 53.1105 14.3053C53.2297 14.3496 53.3786 14.4822 53.5275 14.6887C53.6913 14.8951 53.8254 15.0572 53.9594 15.1604C54.0934 15.2636 54.153 15.4258 54.153 15.6322C54.153 15.8386 54.019 16.0303 53.7658 16.163C53.5126 16.3104 53.2297 16.3989 52.9318 16.4284C50.564 16.6643 49.2684 16.7822 49.0301 16.7969C48.211 18.0501 47.0494 19.9962 45.5751 22.6353C44.1007 25.2744 43.3114 26.9403 43.2221 27.6038C43.1774 27.9134 43.1625 28.1493 43.1625 28.341C43.1625 28.739 43.371 28.9307 43.788 28.9307C44.205 28.9307 44.6666 28.7685 45.173 28.4589C45.6793 28.1346 46.1559 27.7955 46.5728 27.4269C47.7196 26.4243 48.3301 25.9083 48.4046 25.9083C48.6727 25.9083 48.8067 26.3654 48.8067 27.2647C48.8067 27.7512 48.5833 28.1935 48.1217 28.5916C47.0941 29.4615 46.2303 30.1249 45.5304 30.5672C44.8305 31.0095 44.1305 31.2307 43.4157 31.2307C43.2668 31.2307 43.1179 31.2159 42.9838 31.1864C42.1648 31.039 41.5691 30.7441 41.1967 30.3018C40.8096 29.8595 40.6309 29.2698 40.6309 28.5326C40.6309 27.7955 40.8542 26.8814 41.301 25.8199C41.7478 24.7583 42.2988 23.6231 42.9689 22.4289C44.071 20.468 45.173 18.6399 46.2601 16.9296L45.6793 17.0034C44.5028 17.136 43.8178 17.195 43.6242 17.195H43.4902C43.1923 17.195 42.9094 17.136 42.6413 17.0181C42.3732 16.9001 42.2243 16.7527 42.2243 16.5905C42.2243 16.4136 42.2988 16.2514 42.4477 16.0893C42.5966 15.9271 42.686 15.7944 42.7158 15.7059C42.7902 15.4848 43.0583 15.2342 43.5199 14.9688C43.9816 14.7034 44.3241 14.556 44.5624 14.5412C44.8007 14.5265 45.0241 14.5117 45.2474 14.497C45.4708 14.4822 45.7091 14.4822 45.9772 14.4675C46.2452 14.4528 46.4537 14.4528 46.6026 14.438L47.9727 14.379C48.8216 13.1111 49.4173 12.2855 49.73 11.9317C50.0576 11.5631 50.2363 11.3714 50.281 11.3419C50.3257 11.3124 50.4299 11.2829 50.5937 11.2829L51.3235 11.2092Z" fill="#FF6D6D"/>
<path d="M60.4821 25.9374C60.6757 25.9374 60.7948 26.0849 60.8395 26.3797C60.8842 26.6746 60.8991 26.9695 60.8991 27.2938C60.8991 27.6182 60.8693 27.8246 60.8097 27.9425C60.5119 28.5028 59.8715 29.1957 58.8738 30.0066C57.876 30.8175 56.9229 31.2303 56.0293 31.2303C55.4783 31.2303 54.972 31.0681 54.4954 30.7437C54.0338 30.4194 53.7955 29.8444 53.7955 29.0335C53.7955 28.2226 54.0189 27.4118 54.4508 26.6304C51.9191 29.7707 49.9533 31.3335 48.5087 31.3335C47.9428 31.3335 47.4812 31.1271 47.1238 30.729C46.7664 30.3309 46.6025 29.9181 46.6025 29.4758C46.6025 29.0483 46.6621 28.606 46.7812 28.1489C46.9004 27.6919 47.0344 27.2791 47.1685 26.9105C47.3025 26.5419 47.511 26.0996 47.779 25.5688C48.0471 25.0381 48.2556 24.6548 48.3747 24.4041C48.4939 24.1535 48.7172 23.7996 49.0151 23.3131C49.3129 22.8266 49.6852 22.1631 50.1618 21.3375C50.6383 20.5119 51.0255 19.8927 51.3383 19.4946C51.651 19.0965 51.9488 18.8901 52.2467 18.8901C52.5445 18.8901 52.7977 19.0081 53.0211 19.244C53.2445 19.4799 53.3636 19.6863 53.3636 19.8337C53.3636 19.9811 53.0211 20.6593 52.3361 21.8683C50.3256 25.4804 49.3129 27.5739 49.3129 28.1784C49.3129 28.3258 49.3725 28.3996 49.4767 28.3996C49.9682 28.3996 51.1894 27.3528 53.1253 25.2592C55.0613 23.1657 56.1931 21.824 56.5059 21.2343C56.8186 20.6446 57.1016 20.1433 57.3994 19.7452C57.6824 19.3472 57.9058 19.0965 58.0547 19.0081C58.4866 18.7279 59.0525 18.5805 59.7524 18.551C59.8715 18.551 59.946 18.551 60.0056 18.5658C60.0651 18.5805 60.1396 18.669 60.214 18.8164C60.2885 18.9638 60.3332 19.0965 60.3332 19.1997C60.2438 19.4799 59.8417 20.2318 59.112 21.4555C58.3972 22.6792 57.9951 23.3721 57.9207 23.5195C56.7144 25.9817 56.1187 27.5887 56.1187 28.3258C56.1187 28.7534 56.2825 28.9598 56.6101 28.9598C57.2058 28.8861 57.9206 28.4143 58.7546 27.5592C59.0673 27.2496 59.3652 26.9252 59.663 26.6009C59.9609 26.2765 60.1545 26.0849 60.214 26.0406C60.2885 25.9669 60.3779 25.9374 60.4821 25.9374Z" fill="#FF6D6D"/>
<path d="M64.9046 22.4436C67.3023 19.7456 69.3574 18.3892 71.0402 18.3892C71.4572 18.3892 71.7997 18.5071 72.0678 18.7578C72.3359 19.0084 72.4699 19.318 72.4699 19.7161C72.4699 20.1142 72.1869 20.7629 71.621 21.6917C71.0551 22.6058 70.5339 23.3872 70.0573 24.0211C69.8042 24.3455 69.5212 24.5077 69.1936 24.5077C68.8809 24.5077 68.6277 24.3897 68.449 24.1538C68.2703 23.9179 68.1809 23.6526 68.1809 23.343C68.1809 22.65 68.5532 21.8539 69.3127 20.984L69.2829 20.9545C68.9404 20.984 68.1214 21.6475 66.7811 22.9154C65.4556 24.1981 64.3238 25.348 63.3856 26.3506C62.4623 27.3679 61.4496 28.5916 60.3476 30.0512C60.0349 30.4787 59.7668 30.6999 59.5434 30.6999C59.32 30.6999 59.0371 30.6262 58.6797 30.4935C58.3223 30.3608 58.0989 30.2576 58.0244 30.1986C57.95 30.1396 57.9053 30.0364 57.9053 29.889C57.9053 29.7563 57.95 29.5794 58.0244 29.4025C58.0989 29.2108 58.2627 28.9454 58.4712 28.6063C58.6797 28.2672 59.0222 27.707 59.469 26.9403C59.9157 26.1737 60.6008 25.009 61.539 23.4609C62.4772 21.9129 63.0282 20.9693 63.2218 20.6449C63.609 19.9815 63.9217 19.4949 64.1749 19.2001C64.6366 18.6251 65.411 18.345 66.4981 18.345C66.7364 18.345 66.8704 18.4924 66.8704 18.802C66.8704 19.2738 66.4236 20.1731 65.545 21.4706L64.9046 22.4436Z" fill="#FF6D6D"/>
<path d="M81.3313 19.3772C81.3313 20.0407 81.0632 20.6304 80.5122 21.1317C79.9612 21.633 79.3506 21.8836 78.6507 21.8836C78.4273 21.8836 78.2784 21.8246 78.2039 21.7214C78.1295 21.6182 78.0997 21.4708 78.0997 21.3086C78.0997 21.1464 78.1146 20.9695 78.1592 20.8073C77.7869 20.9253 77.3848 21.1169 76.9381 21.3676C76.4913 21.6182 75.9403 21.9868 75.285 22.4881C74.6298 22.9893 74.3022 23.3432 74.3022 23.5938C74.3022 23.6675 74.4213 23.7118 74.6596 23.7118C74.8978 23.7118 75.2702 23.6233 75.7616 23.4611C76.253 23.2989 76.6104 23.2105 76.804 23.2105C76.9976 23.2105 77.1317 23.2252 77.1912 23.24C77.3253 23.3137 77.4593 23.4611 77.6231 23.697C77.772 23.9329 77.8465 24.1246 77.8465 24.2573C77.8465 24.3899 77.7125 24.5669 77.4444 24.788C77.1764 25.0092 76.8785 25.1713 76.5509 25.2893C76.2084 25.4072 75.985 25.4957 75.8807 25.5547C73.7363 26.7489 72.664 27.5598 72.664 28.0021C72.664 28.7835 73.3342 29.1815 74.6894 29.1815C75.5531 29.1815 76.4317 28.9161 77.2955 28.3706C78.0401 27.9136 78.7103 27.4418 79.306 26.9553C79.9016 26.4835 80.2739 26.1886 80.4378 26.0707C80.6016 25.9527 80.7207 25.9085 80.7952 25.9085C81.0632 25.9085 81.1973 26.2034 81.1973 26.7931C81.1973 27.3828 81.1675 27.7662 81.093 27.9431C81.0186 28.1348 80.825 28.3559 80.4824 28.636C78.3082 30.3905 76.2382 31.2751 74.3022 31.2751C73.2597 31.2751 72.4406 31.1276 71.8151 30.8475C70.6684 30.3315 70.1025 29.5501 70.1025 28.4886C70.1025 27.1027 71.0705 26.0412 73.0214 25.3335C72.6342 25.1566 72.3811 24.9502 72.2768 24.6701C72.1577 24.4047 72.113 23.9771 72.113 23.3874C72.113 22.7977 72.3959 22.1785 72.947 21.515C73.498 20.8516 74.183 20.3061 74.9872 19.8932C76.7743 18.9349 78.3826 18.4631 79.7825 18.4631C80.125 18.4631 80.4526 18.5369 80.8101 18.699C81.1675 18.8612 81.3313 19.0824 81.3313 19.3772Z" fill="#FF6D6D"/>
<path d="M116.09 9.11553H116.283C116.343 9.11553 116.388 9.11553 116.402 9.13027C116.417 9.14502 116.432 9.14502 116.462 9.15976C116.492 9.15976 116.507 9.1745 116.536 9.20399C116.581 9.24822 116.656 9.29245 116.745 9.33668C116.864 9.42514 116.924 9.52834 116.924 9.64629C116.924 9.76424 116.805 10.0149 116.566 10.3982C116.328 10.7815 115.717 11.7104 114.72 13.2142C112.441 16.6641 110.401 19.8782 108.599 22.8268C105.486 27.9575 103.908 30.5376 103.878 30.5671C103.848 30.5965 103.833 30.626 103.819 30.6555C103.804 30.7145 103.774 30.744 103.699 30.744L103.491 30.6997L103.074 30.803L102.836 30.7587L102.582 30.803H102.493L101.644 30.9209C101.138 30.9209 100.885 30.744 100.885 30.4049C100.885 30.2574 100.929 30.0805 101.019 29.8741C101.331 29.137 102.925 26.4684 105.784 21.839C103.908 21.8832 102.046 21.9127 100.215 21.9127L96.9383 21.898C96.4022 22.7531 95.6576 23.9621 94.7193 25.5396C92.694 28.9748 91.6218 30.6997 91.4877 30.7292C91.3537 30.7587 91.2495 30.7882 91.1601 30.7882C91.0707 30.7882 90.9963 30.744 90.9367 30.6408C90.8623 30.5523 90.8176 30.4933 90.7878 30.4933C90.758 30.4933 90.7133 30.5081 90.624 30.5523C90.5495 30.5965 90.4304 30.6113 90.2666 30.6113L89.9092 30.5965L89.7751 30.5081C89.7602 30.5081 89.7453 30.5228 89.7305 30.5523C89.7156 30.5818 89.6709 30.5965 89.6113 30.5965C89.1794 30.5965 88.9561 30.4196 88.9561 30.051C88.9561 29.8151 89.0454 29.4908 89.2092 29.0927C89.3879 28.6947 89.6113 28.2671 89.8943 27.8101C90.1772 27.353 90.892 26.2473 92.0685 24.5223C93.2301 22.7973 93.8109 21.9275 93.8109 21.9127C93.6173 21.898 93.3939 21.898 93.1408 21.8832C92.6195 21.8832 92.2621 21.8685 92.0387 21.8243C91.4579 21.7211 91.0559 21.2493 90.8474 20.4089C90.7282 19.9961 90.6836 19.7307 90.6984 19.598C90.6984 19.3326 90.8176 19.1852 91.0559 19.1852L91.4579 19.2884C91.6664 19.3032 92.143 19.3179 92.9174 19.3621C93.6918 19.4064 94.2428 19.4211 94.5853 19.4211L95.4491 19.3916C96.7745 17.3423 98.3531 15.0129 100.2 12.418C98.8594 13.509 97.3702 14.0545 95.732 14.0545C94.9576 14.0545 94.2875 13.8776 93.7365 13.509C93.1705 13.1405 92.9025 12.6687 92.9025 12.1084C92.9025 11.5482 93.111 11.1059 93.5429 10.7668C93.9747 10.4424 94.3768 10.2803 94.764 10.2803C95.1512 10.2803 95.3448 10.3392 95.3448 10.4572C95.3448 10.5014 95.2852 10.5456 95.181 10.5899C95.0768 10.6488 95.0172 10.6931 95.0172 10.7373C95.0172 10.8995 95.1959 11.0469 95.5533 11.1649C95.9107 11.2828 96.3128 11.3565 96.7596 11.3565C97.2063 11.3565 97.7425 11.2238 98.3977 10.9732C99.053 10.7226 99.7231 10.3835 100.423 9.98539C101.406 9.42514 102.18 8.95335 102.746 8.58477C103.074 8.42259 103.372 8.34888 103.67 8.34888C103.967 8.34888 104.161 8.37836 104.295 8.45208C104.429 8.51105 104.518 8.58477 104.578 8.64374C104.638 8.70272 104.712 8.79118 104.772 8.89438C104.846 8.99758 104.906 9.08604 104.98 9.13027C105.04 9.18925 105.084 9.24822 105.084 9.32194C105.084 9.39565 105.04 9.49886 104.965 9.66103C104.891 9.80847 104.504 10.4277 103.804 11.5039C103.104 12.5802 102.195 13.9513 101.093 15.6173C99.9912 17.2833 99.187 18.507 98.6807 19.3032C101.406 19.3032 104.34 19.2589 107.497 19.1557C111.339 13.1552 113.364 10.0149 113.573 9.72001C113.781 9.42514 113.975 9.23348 114.154 9.14502C114.332 9.05656 114.541 9.01233 114.794 9.01233L116.09 9.11553Z" fill="#FF6D6D"/>
<path d="M121.064 19.1706C121.377 19.1706 121.689 19.3033 122.002 19.5834C122.33 19.8636 122.479 20.2764 122.479 20.8366C122.479 21.3969 122.285 22.1193 121.883 23.0186C121.481 23.9032 120.945 24.8173 120.245 25.7461C119.56 26.6602 118.785 27.5301 117.966 28.341C117.132 29.1519 116.239 29.8153 115.286 30.3313C114.318 30.8473 113.454 31.1127 112.665 31.1127C111.875 31.1127 111.25 30.8621 110.773 30.3755C110.297 29.889 110.059 29.2108 110.059 28.341C110.059 27.4711 110.282 26.4981 110.714 25.4513C111.146 24.3898 111.697 23.4609 112.382 22.65C113.067 21.8392 113.797 21.1167 114.601 20.468C116.254 19.1411 117.713 18.4924 118.964 18.4924C119.53 18.4924 119.947 18.6251 120.23 18.9052C120.334 18.9937 120.379 19.0822 120.379 19.1411V19.2296C120.543 19.1706 120.766 19.1706 121.064 19.1706ZM119.53 21.1757H119.426C119.068 21.1757 118.89 20.9251 118.89 20.4091C118.145 20.645 117.371 21.0725 116.552 21.677C115.733 22.2815 115.003 23.0039 114.362 23.8295C113.052 25.4808 112.397 26.8814 112.382 28.0166C112.382 28.5769 112.59 28.857 113.007 28.857C113.424 28.857 114.05 28.5769 114.869 28.0461C115.688 27.5153 116.507 26.7339 117.326 25.7167C118.13 24.7141 118.741 23.8295 119.143 23.0924C119.545 22.3552 119.753 21.8539 119.753 21.5738C119.739 21.3084 119.664 21.1757 119.53 21.1757Z" fill="#FF6D6D"/>
<path d="M122.151 30.7733L121.406 30.7439H121.138C121.034 30.7144 120.93 30.6554 120.811 30.5669C120.691 30.4785 120.602 30.4048 120.542 30.3753C120.483 30.3458 120.453 30.2573 120.453 30.1541C120.453 30.0509 120.498 29.8593 120.572 29.6086C122.553 25.2888 124.474 21.8241 126.336 19.2441C126.544 18.9639 126.872 18.7428 127.318 18.5954C127.765 18.4479 128.212 18.3742 128.644 18.3742C128.897 18.3742 129.031 18.5659 129.031 18.9639C129.031 19.0819 128.986 19.2293 128.912 19.4062C128.837 19.5979 128.629 19.8928 128.301 20.3203C127.974 20.7479 127.587 21.2344 127.14 21.7652C126.693 22.2959 126.44 22.6203 126.38 22.7087C127.78 21.2786 129.031 20.2171 130.163 19.5094C131.295 18.8165 132.099 18.4627 132.605 18.4627C133.112 18.4627 133.499 18.6101 133.767 18.8902C134.035 19.1704 134.169 19.48 134.169 19.8043C134.169 20.1287 134.139 20.4088 134.094 20.6152C134.05 20.8363 133.96 21.0575 133.841 21.2934C133.722 21.5293 133.618 21.7357 133.529 21.8979C133.439 22.06 133.29 22.2812 133.097 22.5466C132.888 22.8119 132.754 23.0036 132.68 23.1068C132.605 23.21 132.441 23.4017 132.203 23.6818C131.965 23.9619 131.831 24.1241 131.816 24.1536C132.099 23.8735 132.501 23.4607 133.007 22.9004C133.514 22.3402 133.945 21.8831 134.303 21.5145C134.66 21.146 135.092 20.7184 135.628 20.2466C136.164 19.7748 136.656 19.3915 137.103 19.1114C138.205 18.4332 139.322 18.0793 140.453 18.0793C140.841 18.0793 141.168 18.1973 141.436 18.4479C141.704 18.6986 141.838 18.9787 141.838 19.3178C141.838 19.6569 141.421 20.4678 140.602 21.7357C139.783 23.0036 138.949 24.2863 138.13 25.569C137.311 26.8516 136.894 27.6625 136.894 28.0016C136.894 28.4586 136.984 28.7388 137.147 28.8272C137.326 28.9157 137.535 28.9452 137.773 28.9304C138.011 28.9157 138.368 28.7535 138.8 28.4586C139.247 28.1638 139.634 27.8689 139.977 27.5446C140.543 27.0433 141.049 26.5568 141.541 26.085C141.645 25.9965 141.749 25.9523 141.883 25.9523C142.077 25.9523 142.196 26.0997 142.24 26.3946C142.285 26.6894 142.3 26.9843 142.3 27.3087C142.3 27.633 142.27 27.8394 142.211 27.9574C141.913 28.5176 141.258 29.2106 140.26 30.0362C139.247 30.8471 138.279 31.2599 137.356 31.2599C137.237 31.2599 137.162 31.2599 137.118 31.2451C136.075 31.1419 135.345 30.8618 134.943 30.39C134.541 29.9182 134.348 29.358 134.348 28.724C134.348 28.0901 134.571 27.2939 135.018 26.3798C135.465 25.4657 135.941 24.6254 136.477 23.8882C137.013 23.151 137.49 22.4729 137.937 21.8684C138.383 21.2639 138.607 20.9395 138.607 20.8953C138.607 20.8511 138.562 20.8216 138.488 20.8216C138.175 20.8216 137.475 21.3229 136.373 22.3402C134.511 24.0651 132.903 25.7311 131.548 27.3234C131.19 27.751 130.342 28.8125 129.016 30.5374C128.867 30.7439 128.614 30.8471 128.286 30.8471C127.959 30.8471 127.616 30.7881 127.259 30.6554C126.901 30.5227 126.723 30.3605 126.723 30.1689C126.723 30.0657 127.527 28.6503 129.15 25.9228C130.773 23.1953 131.578 21.7062 131.578 21.4703C131.578 21.2197 131.429 21.1017 131.131 21.1017C130.833 21.1017 130.208 21.544 129.269 22.4286C126.693 24.8613 124.697 27.2939 123.283 29.6971C123.193 29.8445 123.015 30.0657 122.747 30.3605C122.478 30.6554 122.24 30.7733 122.151 30.7733Z" fill="#FF6D6D"/>
<path d="M151.682 19.3772C151.682 20.0407 151.414 20.6304 150.863 21.1317C150.312 21.633 149.701 21.8836 149.001 21.8836C148.778 21.8836 148.629 21.8246 148.555 21.7214C148.48 21.6182 148.45 21.4708 148.45 21.3086C148.45 21.1464 148.465 20.9695 148.51 20.8073C148.138 20.9253 147.735 21.1169 147.289 21.3676C146.842 21.6182 146.291 21.9868 145.636 22.4881C144.98 22.9893 144.653 23.3432 144.653 23.5938C144.653 23.6675 144.772 23.7118 145.01 23.7118C145.248 23.7118 145.621 23.6233 146.112 23.4611C146.604 23.2989 146.961 23.2105 147.155 23.2105C147.348 23.2105 147.482 23.2252 147.542 23.24C147.676 23.3137 147.81 23.4611 147.974 23.697C148.123 23.9329 148.197 24.1246 148.197 24.2573C148.197 24.3899 148.063 24.5669 147.795 24.788C147.527 25.0092 147.229 25.1713 146.901 25.2893C146.559 25.4072 146.336 25.4957 146.231 25.5547C144.087 26.7489 143.015 27.5598 143.015 28.0021C143.015 28.7835 143.685 29.1815 145.04 29.1815C145.904 29.1815 146.782 28.9161 147.646 28.3706C148.391 27.9136 149.061 27.4418 149.657 26.9553C150.252 26.4835 150.625 26.1886 150.788 26.0707C150.952 25.9527 151.071 25.9085 151.146 25.9085C151.414 25.9085 151.548 26.2034 151.548 26.7931C151.548 27.3828 151.518 27.7662 151.444 27.9431C151.369 28.1348 151.176 28.3559 150.833 28.636C148.659 30.3905 146.589 31.2751 144.653 31.2751C143.61 31.2751 142.791 31.1276 142.166 30.8475C141.019 30.3315 140.453 29.5501 140.453 28.4886C140.453 27.1027 141.421 26.0412 143.372 25.3335C142.985 25.1566 142.732 24.9502 142.627 24.6701C142.508 24.4047 142.464 23.9771 142.464 23.3874C142.464 22.7977 142.747 22.1785 143.298 21.515C143.849 20.8516 144.534 20.3061 145.338 19.8932C147.125 18.9349 148.733 18.4631 150.133 18.4631C150.476 18.4631 150.803 18.5369 151.161 18.699C151.518 18.8612 151.682 19.0824 151.682 19.3772Z" fill="#FF6D6D"/>
<path d="M0.719727 34.8571C4.63639 36.4789 8.6275 37.7321 12.6931 38.6904C16.7289 39.6929 20.8391 40.4006 24.9494 40.8429C27.0045 41.123 29.0746 41.1525 31.1148 41.3442C33.1848 41.3589 35.2399 41.5211 37.2951 41.4032L40.3778 41.3294C41.4053 41.3147 42.4329 41.182 43.4604 41.123C44.488 41.0346 45.5156 40.9903 46.5282 40.8577L49.5812 40.4301C53.6765 39.9878 57.6528 39.0442 61.6141 37.909C65.6201 36.818 69.4027 35.3731 73.4087 33.8693C77.5041 32.3802 81.942 31.4072 86.4395 31.879C88.6584 32.1591 90.8922 32.8668 92.7091 34.1642C94.5408 35.4469 95.8514 37.275 96.6853 39.1917C95.4344 37.4814 93.8707 36.0808 92.0687 35.211C90.2668 34.3411 88.2861 33.9873 86.3203 34.0462C82.3441 34.1052 78.4274 35.4174 74.749 37.0686C71.0111 38.8968 66.9604 40.548 62.8799 41.9192C58.7697 43.2313 54.5254 44.2781 50.2215 44.8089C41.6585 45.9294 32.887 45.9441 24.4282 44.2486C20.1839 43.482 16.0438 42.2878 12.0378 40.7692C8.06159 39.1917 4.17473 37.3487 0.719727 34.8571Z" fill="#FF6D6D"/>
<path d="M143.134 10.3099C139.813 8.90928 136.432 7.81827 133.007 6.96316C129.597 6.06382 126.142 5.42986 122.672 4.98756C120.944 4.72218 119.187 4.6632 117.459 4.4568C115.717 4.41257 113.99 4.23565 112.247 4.30936C111.383 4.32411 110.505 4.32411 109.641 4.30936C108.777 4.30936 107.899 4.39782 107.035 4.42731C106.171 4.48628 105.292 4.50103 104.429 4.58949L101.837 4.8991C98.3676 5.17922 95.0019 5.8869 91.6363 6.75675C88.226 7.56764 84.9944 8.71762 81.5542 9.86759C78.0248 11.0323 74.1975 11.74 70.3553 11.2092C68.464 10.8996 66.5578 10.2362 65.0536 9.05671C63.5197 7.89199 62.4773 6.29971 61.8369 4.63372C62.8943 6.0933 64.2048 7.28751 65.7089 8.02468C67.213 8.76185 68.8661 9.07145 70.5191 9.05671C73.855 9.05671 77.161 7.99519 80.2884 6.66829C83.4753 5.16448 86.975 3.83758 90.4598 2.74657C93.9744 1.6998 97.6379 0.903657 101.301 0.520331C108.613 -0.246322 116.089 -0.0694021 123.253 1.61134C126.842 2.36325 130.341 3.51322 133.692 4.92858C137.058 6.37343 140.304 8.05416 143.134 10.3099Z" fill="#FF6D6D"/>
</svg>
