<svg width="123" height="50" viewBox="0 0 123 50" fill="none" xmlns="http://www.w3.org/2000/svg">
<path d="M0.682617 30.6487V0.483887H18.6278V30.634H0.682617V30.6487ZM16.4535 23.6309L16.9152 20.2989L15.2472 20.1367L14.7409 22.7021C13.6984 23.2181 12.4177 23.4687 10.8838 23.4687C8.7989 23.4687 7.14585 22.82 5.93958 21.5079C4.71841 20.1957 4.12272 18.4707 4.12272 16.3182C4.12272 14.2247 4.71841 12.4997 5.8949 11.1433C7.07139 9.78692 8.62022 9.10873 10.5413 9.10873C11.5242 9.10873 12.3581 9.22667 13.0283 9.44782C13.6984 9.66897 14.309 9.96384 14.8898 10.3472L15.3813 12.883L17.079 12.7208L16.5876 9.38885C15.8727 8.78438 15.0238 8.29785 14.041 7.91452C13.0581 7.54594 11.8369 7.35427 10.3924 7.35427C8.67978 7.35427 7.20545 7.76709 5.96939 8.60745C4.73333 9.44782 3.76533 10.5536 3.08029 11.9247C2.39525 13.3106 2.05272 14.7996 2.05272 16.3919C2.05272 18.913 2.84201 21.0213 4.42058 22.7021C5.99916 24.3828 8.05428 25.2232 10.6009 25.2232C13.1028 25.2232 15.0537 24.6924 16.4535 23.6309Z" fill="#FF6D6D"/>
<path d="M24.7188 30.6487V0.483887H32.4329V30.634H24.7188V30.6487ZM25.5378 24.9578H31.6287V23.4392H29.529V6.60237H25.508V8.12092H27.6376V23.4392H25.5378V24.9578Z" fill="#FF6D6D"/>
<path d="M38.5244 30.6487V0.483887H52.0764V30.634H38.5244V30.6487ZM40.9816 13.9888L40.5498 16.731L42.1134 16.9227L42.5751 14.8734C43.2453 14.549 44.0048 14.3868 44.8983 14.3868C45.9705 14.3868 46.7003 14.6522 47.0726 15.183C47.4449 15.7137 47.6236 16.4067 47.6236 17.2618V18.3233C47.296 18.2938 46.9534 18.2643 46.5811 18.2496C46.2088 18.2348 45.8514 18.2201 45.494 18.2201C44.1537 18.2201 42.8729 18.456 41.6816 18.9278C40.4902 19.3996 39.8945 20.3874 39.8945 21.8764C39.8945 23.1444 40.2966 24.0142 41.1157 24.486C41.9348 24.9725 42.7389 25.2084 43.5282 25.2084C44.4962 25.2084 45.3302 24.9578 46.0152 24.4565C46.7003 23.9552 47.2364 23.395 47.6236 22.7463V22.8053C47.6534 24.4123 48.3831 25.2084 49.8128 25.2084C50.3638 25.2084 50.885 25.0757 51.3764 24.8104L51.3467 23.5867C51.1084 23.6899 50.8403 23.7488 50.5425 23.7488C49.8574 23.7488 49.5149 23.3213 49.5149 22.4662V16.8195C49.5149 14.1657 48.0852 12.8388 45.2259 12.8388C44.4366 12.8388 43.692 12.9272 42.9921 13.1042C42.2773 13.2958 41.6071 13.5907 40.9816 13.9888ZM47.6087 20.5053C47.5342 21.4784 47.1321 22.2598 46.4024 22.82C45.6727 23.395 44.8983 23.6751 44.0643 23.6751C43.5431 23.6751 43.0368 23.5277 42.5602 23.2476C42.0688 22.9674 41.8305 22.4367 41.8305 21.67C41.8305 20.7412 42.2028 20.1515 42.9176 19.8713C43.6474 19.5912 44.4515 19.4585 45.3599 19.4585C45.762 19.4585 46.1492 19.4733 46.5215 19.5175C46.8938 19.547 47.2662 19.5765 47.5938 19.5912V20.5053H47.6087Z" fill="#FF6D6D"/>
<path d="M58.1816 30.6487V0.483887H70.4975V30.634H58.1816V30.6487ZM69.2019 21.5226C69.2019 20.579 68.9487 19.8861 68.4424 19.429C67.936 18.972 67.3255 18.6624 66.5808 18.4855C65.8362 18.3086 65.1065 18.1611 64.3768 18.0432C63.6471 17.9252 63.0216 17.7336 62.5153 17.4829C62.009 17.2323 61.7558 16.79 61.7558 16.156C61.7558 15.5516 61.994 15.1093 62.4855 14.8144C62.9769 14.5195 63.5875 14.3868 64.347 14.3868C65.2256 14.3868 66.0448 14.5785 66.8043 14.9766L67.1021 16.8932L68.6658 16.7015L68.3679 13.9298C67.8616 13.6202 67.251 13.3695 66.5213 13.1631C65.7916 12.9567 65.0172 12.8388 64.1832 12.8388C63.0812 12.8388 62.0685 13.1042 61.1303 13.6202C60.1921 14.1362 59.7304 15.0208 59.7304 16.2887C59.7304 17.2176 59.9836 17.8957 60.4899 18.3233C60.9963 18.7656 61.6218 19.0605 62.3813 19.2374C63.1408 19.4143 63.8853 19.5617 64.63 19.6944C65.3746 19.8124 66.0001 20.0188 66.5064 20.2842C67.0127 20.5495 67.2659 21.0066 67.2659 21.67C67.2659 22.3482 66.9382 22.8495 66.283 23.1739C65.6277 23.4982 64.8831 23.6604 64.0343 23.6604C63.0812 23.6604 62.1876 23.4687 61.3686 23.0707L61.443 21.4931L59.9389 21.3309L59.5666 24.029C60.0878 24.3681 60.7729 24.6482 61.6068 24.8693C62.4408 25.0905 63.2748 25.2084 64.1236 25.2084C65.5682 25.2084 66.7745 24.8841 67.7425 24.2206C68.7105 23.5867 69.2019 22.6726 69.2019 21.5226Z" fill="#FF6D6D"/>
<path d="M76.5879 30.6487V0.483887H88.9037V30.634H76.5879V30.6487ZM87.6081 21.5226C87.6081 20.579 87.3549 19.8861 86.8486 19.429C86.3422 18.972 85.7317 18.6624 84.987 18.4855C84.2424 18.3086 83.5127 18.1611 82.783 18.0432C82.0533 17.9252 81.4278 17.7336 80.9215 17.4829C80.4152 17.2323 80.162 16.79 80.162 16.156C80.162 15.5516 80.4002 15.1093 80.8917 14.8144C81.3831 14.5195 81.9937 14.3868 82.7532 14.3868C83.6319 14.3868 84.451 14.5785 85.2105 14.9766L85.5083 16.8932L87.072 16.7015L86.7741 13.9298C86.2678 13.6202 85.6572 13.3695 84.9275 13.1631C84.1978 12.9567 83.4234 12.8388 82.5894 12.8388C81.4874 12.8388 80.4747 13.1042 79.5365 13.6202C78.5983 14.1362 78.1367 15.0208 78.1367 16.2887C78.1367 17.2176 78.3898 17.8957 78.8962 18.3233C79.4025 18.7656 80.028 19.0605 80.7875 19.2374C81.547 19.4143 82.2916 19.5617 83.0362 19.6944C83.7808 19.8124 84.4063 20.0188 84.9126 20.2842C85.4189 20.5495 85.6721 21.0066 85.6721 21.67C85.6721 22.3482 85.3445 22.8495 84.6893 23.1739C84.034 23.4982 83.2894 23.6604 82.4405 23.6604C81.4874 23.6604 80.5938 23.4687 79.7748 23.0707L79.8493 21.4931L78.3452 21.3309L77.9729 24.029C78.4941 24.3681 79.1791 24.6482 80.0131 24.8693C80.8471 25.0905 81.681 25.2084 82.5299 25.2084C83.9744 25.2084 85.1807 24.8841 86.1487 24.2206C87.1167 23.5867 87.6081 22.6726 87.6081 21.5226Z" fill="#FF6D6D"/>
<path d="M94.9951 30.6487V0.483887H103.111V30.634H94.9951V30.6487ZM96.1865 24.9578H102.277V23.4392H100.178V13.0894H96.1418V14.608H98.3012V23.4392H96.2014V24.9578H96.1865ZM98.0927 7.59017V10.0228H100.148V7.59017H98.0927Z" fill="#FF6D6D"/>
<path d="M109.202 30.6487V0.483887H122.173V30.634H109.202V30.6487ZM121.012 20.9624L119.388 20.6085C119.031 22.6136 117.944 23.6161 116.157 23.6161C114.966 23.6161 114.057 23.2181 113.432 22.4219C112.806 21.6258 112.493 20.5053 112.493 19.09C112.493 17.8073 112.776 16.7163 113.327 15.8022C113.878 14.8881 114.802 14.4458 116.082 14.4458C117.065 14.4458 117.929 14.667 118.644 15.1093L119.106 17.1143L120.669 16.9227L120.208 14.0625C119.597 13.6054 118.957 13.2811 118.286 13.1042C117.616 12.9272 116.887 12.8388 116.097 12.8388C114.236 12.8388 112.821 13.4875 111.898 14.7849C110.959 16.0823 110.498 17.5566 110.498 19.1932C110.498 21.095 110.989 22.5841 111.987 23.6309C112.97 24.6924 114.295 25.2232 115.948 25.2232C117.601 25.2232 118.823 24.7661 119.597 23.8668C120.371 22.9527 120.848 21.9944 121.012 20.9624Z" fill="#FF6D6D"/>
<path d="M8.44129 47.1175C8.09877 47.7368 7.59242 48.2233 6.93716 48.5624C6.26701 48.9015 5.47771 49.0784 4.5544 49.0784H1.88867V40.7632H4.5544C5.47771 40.7632 6.2819 40.9254 6.93716 41.2645C7.59242 41.6036 8.09877 42.0753 8.44129 42.7093C8.78382 43.3433 8.94762 44.0657 8.94762 44.9208C8.94762 45.7612 8.78382 46.4983 8.44129 47.1175ZM6.96693 47.2797C7.54773 46.7195 7.83071 45.9381 7.83071 44.9208C7.83071 43.9035 7.54773 43.1221 6.96693 42.5619C6.38613 42.0016 5.55217 41.7215 4.45014 41.7215H2.94605V48.1201H4.45014C5.55217 48.1201 6.38613 47.84 6.96693 47.2797Z" fill="#FF6D6D"/>
<path d="M14.4729 41.633V44.4785H17.6599V45.3041H14.4729V48.2086H18.0173V49.0784H13.3857V40.7632H18.0173V41.633H14.4729Z" fill="#FF6D6D"/>
<path d="M27.4286 48.0165C27.235 48.3556 26.952 48.6357 26.5648 48.8421C26.1776 49.0485 25.7011 49.1665 25.1203 49.1665C24.5692 49.1665 24.0629 49.0633 23.631 48.8716C23.1992 48.6652 22.8567 48.3998 22.5886 48.046C22.3354 47.6921 22.1865 47.2941 22.1418 46.8518H23.3034C23.3332 47.0877 23.4077 47.3236 23.5417 47.5447C23.6757 47.7659 23.8842 47.9575 24.1374 48.1049C24.3905 48.2524 24.7033 48.3261 25.0756 48.3261C25.5521 48.3261 25.9245 48.2082 26.1776 47.9428C26.4308 47.6774 26.5648 47.3678 26.5648 46.9697C26.5648 46.6306 26.4755 46.3505 26.2968 46.1441C26.1181 45.9377 25.8947 45.7608 25.6415 45.6428C25.3883 45.5249 25.016 45.3922 24.5693 45.2447C24.0331 45.0678 23.6162 44.9056 23.2885 44.7582C22.9609 44.6108 22.6928 44.3749 22.4694 44.0653C22.2461 43.7557 22.127 43.3576 22.127 42.8563C22.127 42.4288 22.2312 42.0454 22.4397 41.7063C22.6482 41.382 22.946 41.1166 23.3481 40.9397C23.7353 40.7628 24.2119 40.6743 24.7331 40.6743C25.5522 40.6743 26.2223 40.866 26.6988 41.2641C27.1903 41.6621 27.4584 42.1634 27.5477 42.7826H26.3861C26.3265 42.4583 26.1478 42.1634 25.8798 41.9128C25.5968 41.6621 25.2245 41.5294 24.748 41.5294C24.3161 41.5294 23.9587 41.6474 23.7055 41.8685C23.4375 42.0897 23.3183 42.414 23.3183 42.8121C23.3183 43.1365 23.4077 43.4018 23.5715 43.5935C23.7502 43.7999 23.9587 43.9473 24.2119 44.0653C24.465 44.1832 24.8224 44.3012 25.2543 44.4486C25.7904 44.6255 26.2223 44.7877 26.5648 44.9499C26.8924 45.1121 27.1754 45.3479 27.3988 45.6576C27.6222 45.9672 27.7413 46.3947 27.7413 46.9255C27.7115 47.3088 27.6222 47.6774 27.4286 48.0165Z" fill="#FF6D6D"/>
<path d="M33.2366 40.7632V49.0784H32.1494V40.7632H33.2366Z" fill="#FF6D6D"/>
<path d="M44.2272 41.3967C44.8973 41.8833 45.3441 42.532 45.5675 43.3576H44.4208C44.2272 42.8563 43.8846 42.4435 43.423 42.1486C42.9613 41.839 42.4103 41.6916 41.77 41.6916C41.2041 41.6916 40.6828 41.8243 40.236 42.0897C39.7893 42.355 39.4319 42.7236 39.1638 43.2102C38.9107 43.6967 38.7766 44.2717 38.7766 44.9351C38.7766 45.6133 38.9107 46.203 39.1638 46.6896C39.417 47.1761 39.7893 47.5594 40.2509 47.8248C40.7126 48.0902 41.2487 48.2229 41.8593 48.2229C42.3805 48.2229 42.8422 48.1049 43.2741 47.8985C43.7059 47.6774 44.0484 47.353 44.3314 46.9402C44.6143 46.5274 44.7633 46.0261 44.8229 45.4659H41.5168V44.6697H45.7313V45.6575C45.6568 46.321 45.4483 46.9107 45.1058 47.4562C44.7633 48.0017 44.3016 48.4145 43.7208 48.7241C43.1401 49.0338 42.4848 49.1959 41.7402 49.1959C40.936 49.1959 40.2211 49.019 39.5957 48.6652C38.9702 48.3113 38.4936 47.8101 38.1511 47.1614C37.8086 46.5274 37.6299 45.7902 37.6299 44.9646C37.6299 44.139 37.8086 43.4018 38.1511 42.7679C38.4936 42.1339 38.9851 41.6179 39.5957 41.264C40.2063 40.9102 40.9211 40.7185 41.7252 40.7185C42.7379 40.689 43.557 40.9249 44.2272 41.3967Z" fill="#FF6D6D"/>
<path d="M56.7213 49.0784H55.6342L51.2707 42.5029V49.0784H50.1836V40.7632H51.2707L55.6342 47.3387V40.7632H56.7213V49.0784Z" fill="#FF6D6D"/>
<path d="M72.3885 48.0165C72.1949 48.3556 71.912 48.6357 71.5248 48.8421C71.1376 49.0485 70.6611 49.1665 70.0803 49.1665C69.5293 49.1665 69.0229 49.0633 68.591 48.8716C68.1592 48.6652 67.8166 48.3998 67.5486 48.046C67.2954 47.6921 67.1465 47.2941 67.1018 46.8518H68.2634C68.2932 47.0877 68.3677 47.3236 68.5017 47.5447C68.6357 47.7659 68.8442 47.9575 69.0973 48.1049C69.3505 48.2524 69.6632 48.3261 70.0355 48.3261C70.5121 48.3261 70.8844 48.2082 71.1376 47.9428C71.3907 47.6774 71.5248 47.3678 71.5248 46.9697C71.5248 46.6306 71.4354 46.3505 71.2567 46.1441C71.078 45.9377 70.8546 45.7608 70.6015 45.6428C70.3483 45.5249 69.976 45.3922 69.5293 45.2447C68.9931 45.0678 68.5761 44.9056 68.2485 44.7582C67.9208 44.6108 67.6528 44.3749 67.4294 44.0653C67.206 43.7557 67.0869 43.3576 67.0869 42.8563C67.0869 42.4288 67.1911 42.0454 67.3996 41.7063C67.6081 41.382 67.906 41.1166 68.3081 40.9397C68.6953 40.7628 69.1718 40.6743 69.6931 40.6743C70.5121 40.6743 71.1823 40.866 71.6588 41.2641C72.1503 41.6621 72.4184 42.1634 72.5077 42.7826H71.3461C71.2865 42.4583 71.1078 42.1634 70.8397 41.9128C70.5567 41.6621 70.1845 41.5294 69.708 41.5294C69.2761 41.5294 68.9187 41.6474 68.6655 41.8685C68.3974 42.0897 68.2783 42.414 68.2783 42.8121C68.2783 43.1365 68.3676 43.4018 68.5314 43.5935C68.7101 43.7999 68.9186 43.9473 69.1718 44.0653C69.4249 44.1832 69.7824 44.3012 70.2142 44.4486C70.7504 44.6255 71.1823 44.7877 71.5248 44.9499C71.8524 45.1121 72.1354 45.3479 72.3587 45.6576C72.5821 45.9672 72.7012 46.3947 72.7012 46.9255C72.6714 47.3088 72.5821 47.6774 72.3885 48.0165Z" fill="#FF6D6D"/>
<path d="M82.2617 40.7632V41.633H79.8937V49.0784H78.7917V41.633H76.4238V40.7632H82.2617Z" fill="#FF6D6D"/>
<path d="M87.3258 40.7632V45.7464C87.3258 46.5573 87.5045 47.1618 87.8769 47.5599C88.2492 47.9432 88.7406 48.1496 89.3959 48.1496C90.0363 48.1496 90.5277 47.9579 90.8851 47.5599C91.2425 47.1618 91.4212 46.572 91.4212 45.7612V40.7779H92.5084V45.7612C92.5084 46.8964 92.2254 47.7515 91.6595 48.3118C91.0936 48.8868 90.3341 49.1669 89.381 49.1669C88.4428 49.1669 87.6833 48.8868 87.1174 48.3118C86.5515 47.7368 86.2686 46.8964 86.2686 45.7612V40.7779H87.3258V40.7632Z" fill="#FF6D6D"/>
<path d="M103.721 47.1175C103.379 47.7368 102.873 48.2233 102.217 48.5624C101.547 48.9015 100.758 49.0784 99.8346 49.0784H97.1689V40.7632H99.8346C100.758 40.7632 101.562 40.9254 102.217 41.2645C102.873 41.6036 103.379 42.0753 103.721 42.7093C104.064 43.3433 104.228 44.0657 104.228 44.9208C104.228 45.7612 104.064 46.4983 103.721 47.1175ZM102.262 47.2797C102.843 46.7195 103.126 45.9381 103.126 44.9208C103.126 43.9035 102.843 43.1221 102.262 42.5619C101.681 42.0016 100.847 41.7215 99.7453 41.7215H98.2411V48.1201H99.7453C100.832 48.1201 101.681 47.84 102.262 47.2797Z" fill="#FF6D6D"/>
<path d="M109.768 40.7632V49.0784H108.681V40.7632H109.768Z" fill="#FF6D6D"/>
<path d="M120.43 41.2052C121.056 41.5738 121.547 42.075 121.905 42.7237C122.262 43.3724 122.441 44.1096 122.441 44.9205C122.441 45.7314 122.262 46.4685 121.905 47.1172C121.547 47.7659 121.056 48.2672 120.43 48.6358C119.805 49.0044 119.105 49.1813 118.33 49.1813C117.556 49.1813 116.841 49.0044 116.216 48.6358C115.59 48.2672 115.084 47.7659 114.727 47.1172C114.369 46.4685 114.19 45.7314 114.19 44.9205C114.19 44.1096 114.369 43.3724 114.727 42.7237C115.084 42.075 115.575 41.5738 116.216 41.2052C116.856 40.8366 117.556 40.6597 118.33 40.6597C119.105 40.6597 119.805 40.8366 120.43 41.2052ZM116.767 42.0603C116.305 42.3257 115.948 42.6942 115.695 43.1955C115.441 43.682 115.307 44.257 115.307 44.9205C115.307 45.5692 115.441 46.1442 115.695 46.6455C115.948 47.1467 116.305 47.5153 116.767 47.7807C117.228 48.0461 117.735 48.1788 118.316 48.1788C118.881 48.1788 119.403 48.0461 119.864 47.7807C120.326 47.5153 120.683 47.132 120.937 46.6455C121.19 46.1589 121.324 45.5839 121.324 44.9352C121.324 44.2718 121.19 43.6968 120.937 43.2103C120.683 42.7237 120.326 42.3404 119.864 42.075C119.403 41.8096 118.896 41.677 118.316 41.677C117.75 41.6622 117.228 41.7949 116.767 42.0603Z" fill="#FF6D6D"/>
</svg>
